<svg width="57" height="71" viewBox="0 0 57 71" fill="none" xmlns="http://www.w3.org/2000/svg">
<path d="M37.4824 71C26.3491 71 14.0158 70.3333 0.482422 69V55.5C15.2158 56.5 26.2158 57 33.4824 57C35.0158 57 36.2158 56.5667 37.0824 55.7C38.0158 54.7667 38.4824 53.5333 38.4824 52V48C38.4824 44 36.4824 42 32.4824 42H11.4824V28H30.4824C34.4824 28 36.4824 26 36.4824 22V20C36.4824 16 34.4824 14 30.4824 14H1.48242V-4.76837e-06H35.4824C42.0158 -4.76837e-06 46.8158 1.5 49.8824 4.5C52.9491 7.43333 54.4824 11.9333 54.4824 18C54.4824 22 53.5491 25.2667 51.6824 27.8C49.8824 30.2667 47.4824 32 44.4824 33C49.8824 34.4667 53.5491 38.0667 55.4824 43.8C56.1491 45.8667 56.4824 48.2667 56.4824 51V52C56.4824 58.5333 54.9491 63.3333 51.8824 66.4C48.8158 69.4667 44.0158 71 37.4824 71Z" fill="#95C22B"/>
</svg>
