<svg width="209" height="72" viewBox="0 0 209 72" fill="none" xmlns="http://www.w3.org/2000/svg">
<path d="M37.0059 72C25.8725 72 13.5392 71.3333 0.00585952 70V56.5C14.7392 57.5 25.7392 58 33.0059 58C34.5392 58 35.7392 57.5667 36.6059 56.7C37.5392 55.7667 38.0059 54.5333 38.0059 53V48C38.0059 44 36.0059 42 32.0059 42H3.00586V0.999995H51.0059V15H21.0059V28H37.0059C43.5392 28 48.3392 29.5 51.4059 32.5C54.4725 35.4333 56.0059 39.9333 56.0059 46V53C56.0059 59.5333 54.4725 64.3333 51.4059 67.4C48.3392 70.4667 43.5392 72 37.0059 72ZM102.967 20C102.967 16 100.967 14 96.9668 14H85.9668C81.9668 14 79.9668 16 79.9668 20V52C79.9668 56 81.9668 58 85.9668 58H96.9668C100.967 58 102.967 56 102.967 52V20ZM120.967 52C120.967 59 119.367 64.1 116.167 67.3C113.033 70.4333 107.967 72 100.967 72H81.9668C74.9668 72 69.8668 70.4333 66.6668 67.3C63.5335 64.1 61.9668 59 61.9668 52V20C61.9668 13 63.5335 7.93333 66.6668 4.79999C69.8668 1.6 74.9668 -3.8147e-06 81.9668 -3.8147e-06H100.967C107.967 -3.8147e-06 113.033 1.6 116.167 4.79999C119.367 7.93333 120.967 13 120.967 20V52ZM139.959 71L179.959 0.999995H194.959L155.959 71H139.959ZM160.959 24.5C160.959 28.5 159.859 31.6 157.659 33.8C155.526 35.9333 152.459 37 148.459 37H139.459C135.459 37 132.359 35.9333 130.159 33.8C128.026 31.6 126.959 28.5 126.959 24.5V12.5C126.959 8.5 128.026 5.43333 130.159 3.3C132.359 1.1 135.459 -3.8147e-06 139.459 -3.8147e-06H148.459C152.459 -3.8147e-06 155.526 1.1 157.659 3.3C159.859 5.43333 160.959 8.5 160.959 12.5V24.5ZM148.959 12.5C148.959 10.1667 147.792 9 145.459 9H142.459C140.126 9 138.959 10.1667 138.959 12.5V24.5C138.959 26.8333 140.126 28 142.459 28H145.459C147.792 28 148.959 26.8333 148.959 24.5V12.5ZM208.959 59.5C208.959 63.5 207.859 66.6 205.659 68.8C203.526 70.9333 200.459 72 196.459 72H187.459C183.459 72 180.359 70.9333 178.159 68.8C176.026 66.6 174.959 63.5 174.959 59.5V47.5C174.959 43.5 176.026 40.4333 178.159 38.3C180.359 36.1 183.459 35 187.459 35H196.459C200.459 35 203.526 36.1 205.659 38.3C207.859 40.4333 208.959 43.5 208.959 47.5V59.5ZM196.959 47.5C196.959 45.1667 195.792 44 193.459 44H190.459C188.126 44 186.959 45.1667 186.959 47.5V59.5C186.959 61.8333 188.126 63 190.459 63H193.459C195.792 63 196.959 61.8333 196.959 59.5V47.5Z" fill="#414896"/>
</svg>
