<svg width="253" height="71" viewBox="0 0 253 71" fill="none" xmlns="http://www.w3.org/2000/svg">
<path d="M16.6699 70V15.5L5.16992 19.5L0.169922 8L18.6699 -4.76837e-06H34.6699V70H16.6699ZM79.6973 71C68.5639 71 56.2306 70.3333 42.6973 69V55.5C57.4306 56.5 68.4306 57 75.6973 57C77.2306 57 78.4306 56.5667 79.2973 55.7C80.2306 54.7667 80.6973 53.5333 80.6973 52V47C80.6973 43 78.6973 41 74.6973 41H45.6973V-4.76837e-06H93.6973V14H63.6973V27H79.6973C86.2306 27 91.0306 28.5 94.0973 31.5C97.1639 34.4333 98.6973 38.9333 98.6973 45V52C98.6973 58.5333 97.1639 63.3333 94.0973 66.4C91.0306 69.4667 86.2306 71 79.6973 71ZM121.458 70.8C119.165 70.8 116.498 70.5333 113.458 70V59.6H116.658C118.685 59.6 119.752 58.5333 119.858 56.4L121.458 27.6H159.858V70H145.858V38.4H134.658L133.458 58.8C133.245 62.4267 132.045 65.3333 129.858 67.52C127.672 69.7067 124.872 70.8 121.458 70.8ZM184.23 36.8C182.097 36.8 181.03 37.8667 181.03 40V44.4H194.63V40C194.63 37.8667 193.563 36.8 191.43 36.8H184.23ZM207.03 69.2C196.737 70.2667 187.403 70.8 179.03 70.8C175.403 70.8 172.497 69.7067 170.31 67.52C168.123 65.3333 167.03 62.4267 167.03 58.8V39.6C167.03 35.6 168.15 32.48 170.39 30.24C172.683 27.9467 175.83 26.8 179.83 26.8H195.83C199.83 26.8 202.95 27.9467 205.19 30.24C207.483 32.48 208.63 35.6 208.63 39.6V54.4H181.03V57.6C181.03 58.4 181.297 59.0667 181.83 59.6C182.363 60.1333 183.03 60.4 183.83 60.4C189.11 60.4 196.843 60 207.03 59.2V69.2ZM239.799 38.4V70H225.799V38.4H212.599V27.6H252.999V38.4H239.799Z" fill="#414896"/>
</svg>
