<svg width="259" height="72" viewBox="0 0 259 72" fill="none" xmlns="http://www.w3.org/2000/svg">
<path d="M16.7266 71V16.5L5.22656 20.5L0.226562 9L18.7266 0.999995H34.7266V71H16.7266ZM85.7539 20C85.7539 16 83.7539 14 79.7539 14H68.7539C64.7539 14 62.7539 16 62.7539 20V52C62.7539 56 64.7539 58 68.7539 58H79.7539C83.7539 58 85.7539 56 85.7539 52V20ZM103.754 52C103.754 59 102.154 64.1 98.9539 67.3C95.8206 70.4333 90.7539 72 83.7539 72H64.7539C57.7539 72 52.6539 70.4333 49.4539 67.3C46.3206 64.1 44.7539 59 44.7539 52V20C44.7539 13 46.3206 7.93333 49.4539 4.79999C52.6539 1.6 57.7539 -3.8147e-06 64.7539 -3.8147e-06H83.7539C90.7539 -3.8147e-06 95.8206 1.6 98.9539 4.79999C102.154 7.93333 103.754 13 103.754 20V52ZM152.746 20C152.746 16 150.746 14 146.746 14H135.746C131.746 14 129.746 16 129.746 20V52C129.746 56 131.746 58 135.746 58H146.746C150.746 58 152.746 56 152.746 52V20ZM170.746 52C170.746 59 169.146 64.1 165.946 67.3C162.813 70.4333 157.746 72 150.746 72H131.746C124.746 72 119.646 70.4333 116.446 67.3C113.313 64.1 111.746 59 111.746 52V20C111.746 13 113.313 7.93333 116.446 4.79999C119.646 1.6 124.746 -3.8147e-06 131.746 -3.8147e-06H150.746C157.746 -3.8147e-06 162.813 1.6 165.946 4.79999C169.146 7.93333 170.746 13 170.746 20V52ZM189.738 71L229.738 0.999995H244.738L205.738 71H189.738ZM210.738 24.5C210.738 28.5 209.638 31.6 207.438 33.8C205.305 35.9333 202.238 37 198.238 37H189.238C185.238 37 182.138 35.9333 179.938 33.8C177.805 31.6 176.738 28.5 176.738 24.5V12.5C176.738 8.5 177.805 5.43333 179.938 3.3C182.138 1.1 185.238 -3.8147e-06 189.238 -3.8147e-06H198.238C202.238 -3.8147e-06 205.305 1.1 207.438 3.3C209.638 5.43333 210.738 8.5 210.738 12.5V24.5ZM198.738 12.5C198.738 10.1667 197.572 9 195.238 9H192.238C189.905 9 188.738 10.1667 188.738 12.5V24.5C188.738 26.8333 189.905 28 192.238 28H195.238C197.572 28 198.738 26.8333 198.738 24.5V12.5ZM258.738 59.5C258.738 63.5 257.638 66.6 255.438 68.8C253.305 70.9333 250.238 72 246.238 72H237.238C233.238 72 230.138 70.9333 227.938 68.8C225.805 66.6 224.738 63.5 224.738 59.5V47.5C224.738 43.5 225.805 40.4333 227.938 38.3C230.138 36.1 233.238 35 237.238 35H246.238C250.238 35 253.305 36.1 255.438 38.3C257.638 40.4333 258.738 43.5 258.738 47.5V59.5ZM246.738 47.5C246.738 45.1667 245.572 44 243.238 44H240.238C237.905 44 236.738 45.1667 236.738 47.5V59.5C236.738 61.8333 237.905 63 240.238 63H243.238C245.572 63 246.738 61.8333 246.738 59.5V47.5Z" fill="#414896"/>
</svg>
