<svg width="130" height="130" viewBox="0 0 130 130" fill="none" xmlns="http://www.w3.org/2000/svg">
<g clip-path="url(#clip0)">
<path d="M110.962 19.0381C98.685 6.76102 82.3621 0 65 0C47.6379 0 31.315 6.76102 19.0381 19.0381C6.76102 31.315 0 47.6379 0 65C0 82.3621 6.76102 98.685 19.0381 110.962C31.315 123.239 47.6379 130 65 130C82.3621 130 98.685 123.239 110.962 110.962C123.239 98.685 130 82.3621 130 65C130 47.6379 123.239 31.315 110.962 19.0381ZM65 124.922C31.9589 124.922 5.07813 98.0411 5.07813 65C5.07813 31.9589 31.9589 5.07812 65 5.07812C98.0411 5.07812 124.922 31.9589 124.922 65C124.922 98.0411 98.0411 124.922 65 124.922Z" fill="#787FC1"/>
<path d="M65 102.399C85.6551 102.399 102.399 85.6551 102.399 65C102.399 44.3449 85.6551 27.6006 65 27.6006C44.3449 27.6006 27.6006 44.3449 27.6006 65C27.6006 85.6551 44.3449 102.399 65 102.399Z" fill="#D2F286"/>
<path d="M69.3022 63.0686C68.4904 62.7817 67.7348 62.5108 67.0348 62.2563V49.332C69.1486 49.6763 70.702 50.6257 71.4893 51.7477C72.2947 52.8956 73.8783 53.1729 75.0262 52.3675C76.1741 51.5618 76.4517 49.9785 75.646 48.8305C74.0347 46.5345 71.0074 44.6492 67.0348 44.211V42.6802C67.0348 41.2779 65.898 40.1411 64.4957 40.1411C63.0934 40.1411 61.9567 41.2779 61.9567 42.6802V44.425C61.2234 44.5601 60.471 44.7414 59.7017 44.9732C55.7182 46.1732 52.7107 50.0546 52.3874 54.4122C52.0703 58.6867 54.3605 62.4079 58.5132 64.3663C59.2327 64.7055 60.4248 65.1951 61.9567 65.7836V80.8946C59.5722 80.3837 57.2622 79.315 55.8461 77.557C54.9666 76.4649 53.368 76.2925 52.276 77.1723C51.1839 78.0519 51.0118 79.6505 51.8913 80.7425C54.4329 83.8978 58.2928 85.4824 61.9567 86.0659V87.3204C61.9567 88.7228 63.0934 89.8595 64.4957 89.8595C65.898 89.8595 67.0348 88.7228 67.0348 87.3204V86.269C67.0526 86.2675 67.0703 86.266 67.0878 86.2645C74.7444 85.5957 78.0467 80.8357 78.5842 76.6041C79.318 70.8254 75.501 65.2596 69.3022 63.0686ZM60.6787 59.7729C57.6547 58.347 57.3589 56.0374 57.4516 54.7874C57.6202 52.5157 59.1822 50.4329 61.1662 49.8355C61.4331 49.755 61.6967 49.6829 61.9564 49.6187V60.3231C61.3785 60.0865 60.9535 59.9021 60.6787 59.7729ZM73.5465 75.964C73.1857 78.8037 70.7626 80.7293 67.0348 81.1658V67.6526C67.2247 67.7202 67.4164 67.7882 67.6099 67.8565C72.1906 69.4754 73.8981 73.1941 73.5465 75.964Z" fill="#787FC1"/>
<circle cx="119.082" cy="119.844" r="48.75" fill="white"/>
</g>
<defs>
<clipPath id="clip0">
<rect width="130" height="130" fill="white"/>
</clipPath>
</defs>
</svg>
