<svg width="790" height="669" viewBox="0 0 790 669" fill="none" xmlns="http://www.w3.org/2000/svg">
<g style="mix-blend-mode:multiply" opacity="0.15">
<g style="mix-blend-mode:multiply" opacity="0.03">
<path d="M297 77.1803C322.88 74.5203 350.92 88.9403 375.11 107.67C403.7 129.67 428.28 158.51 436.92 169.53C479.92 224.33 485.64 270.69 471.05 310.01C462.74 333.88 447.51 356.23 429.8 377.7C418.1 391.94 404.62 406.7 392.4 420.75C358.48 459.7 306.14 488.57 254.07 506.1C228.862 514.743 202.989 521.308 176.71 525.73C101.13 540.08 34.22 536.91 24.71 530.87C15.2 524.83 4.93998 484 7.06998 431.36C7.89998 410.73 9.79998 387.46 14.77 364.16C22.06 327.65 35.51 289.22 57.57 254.09C87.22 206.52 223.27 83.7303 297 77.1803Z" fill="#FDFEFE"/>
</g>
<g style="mix-blend-mode:multiply" opacity="0.06">
<path d="M296.76 78.5502C322.2 75.5502 349.99 89.5502 373.76 108.02C401.4 129.31 426.37 158.38 434.76 169.02C476.29 222 484 268.94 469.87 307C462.27 330.5 447.55 352.79 430 374C418.69 387.76 404.81 402.9 393 416.47C360.21 454.12 307.14 484.47 256.81 501.47C232.04 510.242 206.482 516.605 180.49 520.47C107.43 534.34 41.1599 529.69 31.9099 523.84C22.6599 517.99 11.7699 477.47 13.8299 426.61C14.6299 406.67 15.7799 383.48 20.5799 360.95C27.1999 325.24 40.1999 287.41 61.9499 253.02C90.6099 206.91 225.45 84.8802 296.76 78.5502Z" fill="#FCFCFC"/>
</g>
<g style="mix-blend-mode:multiply" opacity="0.1">
<path d="M296.49 79.9203C321.49 76.5803 349.02 90.0503 372.49 108.37C399.17 128.92 424.55 158.26 432.61 168.55C472.71 219.69 482.32 267.19 468.69 303.89C461.79 327.02 447.58 349.24 430.19 370.13C419.28 383.42 404.99 398.93 393.58 412.02C361.92 448.37 308.12 480.27 259.52 496.63C235.175 505.527 209.917 511.688 184.21 515C113.67 528.4 48.03 522.25 39.11 516.61C30.19 510.97 18.58 470.75 20.57 421.61C21.34 402.35 21.73 379.24 26.37 357.5C32.37 322.58 44.88 285.34 66.31 251.71C94 207.3 227.64 86.0003 296.49 79.9203Z" fill="#FAFBFB"/>
</g>
<g style="mix-blend-mode:multiply" opacity="0.13">
<path d="M296.21 81.2802C320.76 77.6202 348.06 90.6002 371.1 108.72C396.83 128.54 422.6 158.13 430.38 168.05C469.04 217.37 480.58 265.44 467.44 300.83C461.24 323.58 447.53 345.75 430.31 366.35C419.79 379.16 405.09 395.03 394.1 407.66C363.56 442.66 309.03 476.12 262.17 491.9C238.288 500.884 213.368 506.818 188 509.56C120 522.48 55 514.85 46.37 509.41C37.74 503.97 25.45 464.07 27.37 416.72C28.12 398.15 27.75 375.13 32.22 354.16C37.46 320 49.56 283.39 70.68 250.5C97.37 207.69 229.82 87.1802 296.21 81.2802Z" fill="#F9F9F9"/>
</g>
<g style="mix-blend-mode:multiply" opacity="0.16">
<path d="M295.93 82.6502C320.05 78.6502 347.09 91.1502 369.75 109.08C394.53 128.16 420.7 158 428.19 167.56C465.42 215.05 478.87 263.69 466.19 297.77C460.7 320.15 447.49 342.26 430.44 362.56C420.31 374.9 405.21 391.14 394.62 403.3C365.24 437.05 310 472 264.86 487.17C241.394 496.272 216.755 501.996 191.68 504.17C126.17 516.61 61.81 507.49 53.53 502.25C45.25 497.01 32.22 457.43 34.07 411.84C34.79 393.95 33.66 371.01 37.97 350.84C42.59 317.51 54.25 281.46 75.05 249.32C100.76 208.08 232 88.3302 295.93 82.6502Z" fill="#F7F8F8"/>
</g>
<g style="mix-blend-mode:multiply" opacity="0.19">
<path d="M295.65 84C319.33 79.66 346.12 91.69 368.4 109.41C392.23 127.76 418.79 157.86 425.99 167.05C461.79 212.71 477.17 261.92 464.99 294.69C460.19 316.69 447.5 338.75 430.61 358.76C420.87 370.62 405.36 387.22 395.18 398.91C366.9 431.37 310.91 467.81 267.52 482.41C244.492 491.639 220.146 497.16 195.39 498.77C132.39 510.77 68.6799 500.13 60.7099 495.09C52.7399 490.05 38.9999 450.8 40.8099 407C41.5099 389.81 39.6299 367 43.8099 347.53C47.7599 314.99 58.9699 279.53 79.4699 248.15C104.14 208.46 234.18 89.48 295.65 84Z" fill="#F6F6F6"/>
</g>
<g style="mix-blend-mode:multiply" opacity="0.23">
<path d="M295.37 85.3901C318.61 80.7201 345.16 92.2601 367.05 109.78C389.93 127.39 416.89 157.78 423.8 166.57C458.17 210.41 475.47 260.19 463.8 291.65C459.71 313.28 447.52 335.27 430.8 354.99C421.45 366.38 405.53 383.34 395.8 394.56C368.66 425.72 311.93 463.68 270.28 477.7C247.682 487.045 223.622 492.359 199.19 493.4C138.72 504.89 75.6399 492.79 67.9899 487.96C60.3399 483.13 45.9099 444.17 47.6099 402.08C48.2799 385.57 45.6099 362.8 49.6099 344.16C52.9099 312.41 63.6699 277.55 83.8499 246.91C107.52 208.85 236.36 90.6301 295.37 85.3901Z" fill="#F4F5F5"/>
</g>
<g style="mix-blend-mode:multiply" opacity="0.26">
<path d="M295.1 86.7603C317.89 81.7603 344.19 92.7603 365.7 110.13C387.62 127.01 414.98 157.63 421.61 166.13C454.55 208.13 473.77 258.49 462.61 288.64C459.21 309.9 447.53 331.83 430.98 351.26C421.98 362.17 405.7 379.49 396.33 390.26C370.33 420.12 312.86 459.59 272.94 473.03C250.785 482.475 227.02 487.568 202.94 488.03C144.94 499.03 82.55 485.45 75.22 480.82C67.89 476.19 52.68 437.54 54.31 397.2C54.95 381.38 51.55 358.68 55.31 340.82C58 309.87 68.2999 275.61 88.1699 245.71C110.91 209.24 238.54 91.7803 295.1 86.7603Z" fill="#F3F3F4"/>
</g>
<g style="mix-blend-mode:multiply" opacity="0.29">
<path d="M294.82 88.1301C317.18 82.7901 343.23 93.3701 364.35 110.48C385.35 126.63 413.08 157.48 419.42 165.59C450.92 205.77 472.07 256.69 461.36 285.53C458.67 306.42 447.5 328.29 431.11 347.43C422.54 357.86 405.81 375.55 396.85 385.84C372 414.4 313.78 455.38 275.6 468.23C253.867 477.824 230.356 482.73 206.6 482.63C151.17 493.15 89.36 478.09 82.35 473.63C75.34 469.17 59.5 430.9 61.06 392.32C61.67 377.19 57.52 354.58 61.16 337.49C63.16 307.33 72.98 273.66 92.54 244.49C114.29 209.63 240.72 92.9301 294.82 88.1301Z" fill="#F1F2F2"/>
</g>
<g style="mix-blend-mode:multiply" opacity="0.32">
<path d="M294.54 89.4903C316.46 83.8203 342.26 93.9203 363 110.83C383 126.25 411.18 157.38 417.22 165.09C447.3 203.45 470.37 254.94 460.15 282.47C458.15 302.98 447.49 324.8 431.27 343.64C423.09 353.64 405.95 371.64 397.4 381.47C373.65 408.73 314.73 451.23 278.28 463.47C256.982 473.184 233.739 477.885 210.34 477.21C157.43 487.26 96.25 470.7 89.56 466.47C82.87 462.24 66.32 424.24 67.81 387.41C68.39 372.97 63.48 350.41 66.96 334.13C68.5189 301.687 78.8906 270.281 96.96 243.29C117.68 210 242.9 94.0803 294.54 89.4903Z" fill="#F0F0F1"/>
</g>
<g style="mix-blend-mode:multiply" opacity="0.35">
<path d="M294.26 90.8602C315.74 84.8602 341.26 94.4702 361.66 111.19C380.72 125.87 409.27 157.25 415.03 164.6C443.67 201.13 468.66 253.19 458.93 279.41C457.64 299.55 447.48 321.31 431.43 339.85C423.63 349.35 406.1 367.75 397.95 377.11C375.33 403.11 315.68 447.11 280.95 458.77C259.56 468.97 235.04 473.24 214.05 471.85C163.66 481.42 103.12 463.38 96.75 459.35C90.38 455.32 73.12 417.64 74.54 382.56C75.1 368.81 69.43 346.35 72.74 330.82C73.6135 299.141 83.5112 268.369 101.27 242.12C121.06 210.41 245.08 95.2302 294.26 90.8602Z" fill="#EEEFEF"/>
</g>
<g style="mix-blend-mode:multiply" opacity="0.39">
<path d="M294 92.2301C315 85.8901 340.35 95.0201 360.33 111.54C378.44 125.48 407.39 157.12 412.86 164.11C440.07 198.81 466.98 251.44 457.74 276.34C457.14 296.12 447.49 317.81 431.61 336.07C424.2 345.07 406.26 363.86 398.52 372.74C377 397.41 316.63 442.93 283.65 454C262.7 464.32 238.37 468.38 217.8 466.43C169.93 475.56 110 456 104 452.2C98 448.4 80 411 81.31 377.68C81.84 364.61 75.41 342.25 78.56 327.49C78.7553 296.579 88.1932 266.434 105.66 240.93C124.44 210.8 247.26 96.3801 294 92.2301Z" fill="#EDEEEE"/>
</g>
<g style="mix-blend-mode:multiply" opacity="0.42">
<path d="M293.71 93.6004C314.31 86.9204 339.36 95.6004 358.96 111.89C376.11 125.1 405.46 157 410.65 163.61C436.42 196.49 465.26 249.69 456.5 273.28C456.61 292.68 447.5 314.28 431.75 332.28C424.75 340.82 406.39 359.95 399.05 368.37C378.7 391.74 317.58 438.78 286.34 449.29C265.82 459.75 241.69 463.59 221.53 461.07C176.18 469.68 116.92 448.67 111.18 445.07C105.44 441.47 86.7799 404.39 88.0599 372.82C88.5599 360.44 81.3699 338.16 84.3599 324.18C83.6499 297.18 91.7199 265.91 110.03 239.75C127.83 211.19 249.45 97.5304 293.71 93.6004Z" fill="#EBECED"/>
</g>
<g style="mix-blend-mode:multiply" opacity="0.45">
<path d="M293.43 95.0001C313.59 88.0001 338.43 96.1601 357.61 112.27C373.81 124.75 403.56 156.9 408.46 163.15C432.8 194.15 463.56 247.97 455.29 270.25C456.09 289.25 447.46 310.86 431.91 328.53C425.28 336.6 406.53 356.09 399.6 364.04C380.38 386.11 318.53 434.67 289.02 444.6C268.94 455.18 245.02 458.81 225.26 455.72C182.43 463.86 123.81 441.35 118.39 437.93C112.97 434.51 93.5999 397.76 94.8099 367.93C95.2799 356.24 87.34 334.04 90.15 320.83C88.79 294.64 96.41 263.95 114.4 238.54C131.21 211.58 251.63 98.6801 293.43 95.0001Z" fill="#EAEBEB"/>
</g>
<g style="mix-blend-mode:multiply" opacity="0.48">
<path d="M293.15 96.3404C312.87 88.9904 337.43 96.6804 356.26 112.59C371.51 124.34 401.65 156.75 406.26 162.59C429.17 191.81 461.86 246.15 454.07 267.12C455.58 285.77 447.45 307.3 432.07 324.68C425.83 332.27 406.67 352.13 400.15 359.61C382.06 380.38 319.48 430.45 291.71 439.8C272.06 450.54 248.32 454 229 450.31C188.68 458 130.7 434 125.6 430.75C120.5 427.5 100.42 391.1 101.6 363.04C102.04 352.04 93.3399 329.92 95.9899 317.49C93.9899 292.09 101.13 262 118.82 237.34C134.59 212 253.81 99.8304 293.15 96.3404Z" fill="#E8E9EA"/>
</g>
<g style="mix-blend-mode:multiply" opacity="0.52">
<path d="M292.87 97.7C312.15 90.02 336.47 97.24 354.87 112.94C369.17 123.94 399.71 156.62 404.03 162.13C425.51 189.53 460.11 244.44 452.82 264.13C455.02 282.41 447.41 303.87 432.19 320.96C426.34 328.08 406.78 348.3 400.66 355.32C383.66 374.79 320.39 426.32 294.36 435.13C275.14 445.97 251.6 449.13 232.69 444.95C194.9 452.12 137.54 426.65 132.77 423.63C128 420.61 107.2 384.5 108.27 358.19C108.68 347.88 99.2699 325.84 101.71 314.19C99.0099 289.58 105.71 260.08 123.11 236.19C138 212.35 256 101 292.87 97.7Z" fill="#E7E8E8"/>
</g>
<g style="mix-blend-mode:multiply" opacity="0.55">
<path d="M292.6 99.0701C311.43 91.0701 335.5 97.7901 353.6 113.3C366.95 123.57 397.89 156.5 401.92 161.64C421.97 187.21 458.49 242.69 451.68 261.04C454.59 278.95 447.48 300.35 432.43 317.14C426.97 323.79 407 344.37 401.29 350.92C385.46 369.1 321.42 422.19 297.12 430.37C278.34 441.37 255 444.32 236.5 439.53C201.23 446.23 144.5 419.27 140.05 416.44C135.6 413.61 114.1 377.83 115.05 353.28C115.44 343.65 105.23 321.7 107.55 310.82C104.18 287.01 110.46 258.11 127.55 234.94C141.36 212.74 258.17 102.13 292.6 99.0701Z" fill="#E5E6E7"/>
</g>
<g style="mix-blend-mode:multiply" opacity="0.58">
<path d="M292.32 100.44C310.72 92.0903 334.53 98.3403 352.21 113.65C364.6 123.19 395.94 156.37 399.69 161.15C418.3 184.89 456.75 240.94 450.43 257.98C454.03 275.52 447.43 296.86 432.55 313.36C427.48 319.53 407.1 340.48 401.81 346.56C387.1 363.43 322.33 418.04 299.81 425.64C281.46 436.72 258.31 439.5 240.23 434.14C207.48 440.36 151.4 411.91 147.23 409.29C143.06 406.67 120.88 371.2 121.8 348.4C122.16 339.46 111.2 317.59 113.35 307.49C109.35 284.49 115.14 256.16 131.89 233.75C144.74 213.13 260.35 103.28 292.32 100.44Z" fill="#E4E5E5"/>
</g>
<g style="mix-blend-mode:multiply" opacity="0.61">
<path d="M292 101.81C310 93.1203 333.53 98.8903 350.82 114C362.26 122.81 394 156.24 397.45 160.66C414.64 182.57 455.01 239.19 449.17 254.92C453.48 272.08 447.38 293.37 432.67 309.58C427.99 315.27 407.2 336.58 402.32 342.19C388.75 357.77 323.24 413.89 302.41 420.9C284.5 432.12 261.55 434.68 243.88 428.76C213.65 434.5 158.21 404.56 154.39 402.14C150.57 399.72 127.66 364.57 128.51 343.52C128.85 335.27 117.12 313.52 119.11 304.16C114.41 281.93 119.79 254.22 136.22 232.55C148.13 213.52 262.53 104.43 292 101.81Z" fill="#E2E3E4"/>
</g>
<g style="mix-blend-mode:multiply" opacity="0.65">
<path d="M291.76 103.18C309.28 94.1803 332.6 99.4503 349.52 114.35C360 122.43 392.13 156.12 395.3 160.16C411.05 180.25 453.35 237.44 448 251.86C453 268.65 447.42 289.86 432.87 305.79C428.58 311.01 407.39 332.68 402.87 337.79C390.43 352.07 324.19 409.7 305.1 416.13C287.62 427.47 264.87 429.82 247.61 423.33C219.9 428.59 165.1 397.17 161.61 394.95C158.12 392.73 134.5 357.89 135.28 338.6C135.59 331.04 123.1 309.33 124.93 300.78C119.56 279.35 124.49 252.23 140.62 231.31C151.51 213.91 264.71 105.58 291.76 103.18Z" fill="#E1E2E3"/>
</g>
<g style="mix-blend-mode:multiply" opacity="0.68">
<path d="M291.48 104.55C308.56 95.1902 331.64 100 348.17 114.7C357.7 122.04 390.23 155.99 393.11 159.7C407.43 177.96 451.65 235.7 446.78 248.83C452.49 265.24 447.41 286.41 433.03 302.04C429.13 306.78 407.53 328.82 403.46 333.49C392.15 346.49 325.18 405.63 307.82 411.49C290.82 422.95 268.22 425.09 251.39 418.03C226.19 422.82 172.03 389.9 168.84 387.89C165.65 385.88 141.34 351.35 142.05 333.81C142.33 326.94 129.05 305.31 130.75 297.54C124.75 276.9 129.2 250.38 145.01 230.21C154.9 214.3 266.89 106.73 291.48 104.55Z" fill="#DFE1E1"/>
</g>
<g style="mix-blend-mode:multiply" opacity="0.71">
<path d="M291.21 105.91C307.85 96.2202 330.67 100.55 346.82 115.06C355.4 121.66 388.32 155.87 390.92 159.18C403.8 175.61 449.92 233.94 445.56 245.74C451.97 261.74 447.4 282.89 433.19 298.22C429.68 302.49 407.67 324.89 404.01 329.1C393.83 340.78 326.13 401.45 310.51 406.71C293.9 418.3 271.51 420.22 255.12 412.59C232.44 416.9 178.92 382.5 176.05 380.69C173.18 378.88 148.16 344.69 148.8 328.88C149.05 322.69 135.05 301.15 136.54 294.16C129.85 274.31 133.88 248.38 149.38 228.96C158.28 214.69 269.07 107.88 291.21 105.91Z" fill="#DEDFE0"/>
</g>
<g style="mix-blend-mode:multiply" opacity="0.74">
<path d="M290.93 107.28C307.13 97.2803 329.7 101.11 345.47 115.41C353.09 121.28 386.42 155.74 388.72 158.68C400.18 173.29 448.24 232.19 444.35 242.68C451.46 258.35 447.35 279.4 433.35 294.44C430.23 298.23 407.82 320.99 404.56 324.73C395.51 335.12 327.08 397.3 313.19 401.97C297.02 413.69 274.86 415.4 258.85 407.21C238.69 411.03 185.8 375.15 183.26 373.54C180.72 371.93 155 338 155.55 324C155.77 318.5 141.02 297 142.34 290.82C134.98 271.82 138.57 246.44 153.75 227.76C161.66 215.08 271.26 109 290.93 107.28Z" fill="#DCDEDE"/>
</g>
<g style="mix-blend-mode:multiply" opacity="0.77">
<path d="M290.65 108.65C306.41 98.29 328.74 101.65 344.12 115.76C350.79 120.9 384.52 155.62 386.53 158.19C396.53 170.97 446.53 230.44 443.13 239.62C450.94 254.91 447.39 275.9 433.51 290.62C430.78 293.94 407.96 317.07 405.11 320.34C397.19 329.43 328.03 393.12 315.88 397.21C300.14 409.06 278.17 410.55 262.58 401.79C244.95 405.14 192.69 367.79 190.46 366.36C188.23 364.93 161.8 331.36 162.3 319.09C162.49 314.28 146.98 292.9 148.14 287.46C140.14 269.21 143.25 244.46 158.14 226.54C165.05 215.47 273.44 110.18 290.65 108.65Z" fill="#DBDCDD"/>
</g>
<g style="mix-blend-mode:multiply" opacity="0.81">
<path d="M290.37 110C305.69 99.3101 327.77 102.19 342.77 116.09C348.49 120.5 382.61 155.47 384.34 157.68C392.93 168.68 444.84 228.68 441.92 236.54C450.43 251.46 447.38 272.39 433.67 286.85C431.33 289.69 408.11 313.18 405.67 315.99C398.89 323.78 328.99 388.99 318.57 392.49C303.27 404.49 281.5 405.74 266.32 396.41C251.21 399.28 199.59 360.41 197.68 359.21C195.77 358.01 168.68 324.74 169.06 314.21C169.22 310.09 152.96 288.79 153.95 284.13C145.26 266.67 147.95 242.52 162.51 225.34C168.43 215.86 275.62 111.33 290.37 110Z" fill="#D9DBDC"/>
</g>
<g style="mix-blend-mode:multiply" opacity="0.84">
<path d="M290.09 111.39C304.98 100.39 326.81 102.76 341.42 116.46C346.19 120.13 380.71 155.37 382.15 157.2C389.31 166.33 443.15 226.94 440.7 233.49C449.91 248.05 447.37 268.92 433.83 283.08C431.88 285.45 408.25 309.3 406.21 311.64C400.56 318.13 329.93 384.85 321.21 387.77C306.34 399.87 284.77 400.94 270.01 391.05C257.41 393.44 206.43 353.05 204.84 352.05C203.25 351.05 175.4 318.1 175.76 309.33C175.9 305.89 158.87 284.68 159.7 280.79C150.34 264.13 152.58 240.57 166.83 224.14C171.81 216.25 277.8 112.48 290.09 111.39Z" fill="#D8D9DA"/>
</g>
<g style="mix-blend-mode:multiply" opacity="0.87">
<path d="M289.82 112.76C304.26 101.39 325.82 103.32 340.07 116.81C343.88 119.75 378.8 155.24 379.95 156.71C385.68 164.02 441.43 225.19 439.49 230.43C449.4 244.61 447.37 265.43 433.99 279.3C432.43 281.19 408.39 305.41 406.76 307.3C402.24 312.49 330.88 380.72 323.93 383.06C309.5 395.29 288.12 396.14 273.78 385.68C263.7 387.59 213.36 345.76 212.08 344.95C210.8 344.14 182.26 311.52 182.55 304.5C182.66 301.75 164.87 280.62 165.55 277.5C155.55 261.63 157.31 238.67 171.25 222.99C175.2 216.63 280 113.63 289.82 112.76Z" fill="#D6D8D9"/>
</g>
<g style="mix-blend-mode:multiply" opacity="0.9">
<path d="M289.54 114.12C303.54 102.43 324.87 103.87 338.72 117.12C341.58 119.32 376.9 155.06 377.72 156.17C382.02 161.65 439.72 223.39 438.23 227.32C448.84 241.13 447.32 261.88 434.11 275.46C432.94 276.88 408.49 301.46 407.27 302.86C403.88 306.76 331.79 376.51 326.58 378.26C312.58 390.61 291.4 391.26 277.47 380.26C269.91 381.7 220.21 338.38 219.25 337.77C218.29 337.16 189.04 304.85 189.25 299.59C189.34 297.53 170.8 276.48 171.3 274.15C160.6 259.07 161.95 236.7 175.57 221.77C178.58 217 282.16 114.78 289.54 114.12Z" fill="#D5D6D7"/>
</g>
<g style="mix-blend-mode:multiply" opacity="0.94">
<path d="M289.26 115.49C302.82 103.49 323.91 104.42 337.37 117.49C339.28 118.96 374.99 154.96 375.57 155.69C378.43 159.35 438.03 221.69 437.06 224.28C448.37 237.72 447.35 258.41 434.31 271.7C433.53 272.65 408.68 297.58 407.86 298.52C405.6 301.11 332.78 372.38 329.31 373.52C315.74 386 294.75 386.43 281.24 374.83C276.24 375.83 227.14 330.98 226.5 330.58C225.86 330.18 195.9 298.18 196.04 294.67C196.1 293.3 176.8 272.33 177.13 270.77C165.78 256.49 166.67 234.77 179.99 220.53C182 217.41 284.34 115.93 289.26 115.49Z" fill="#D3D5D6"/>
</g>
<g style="mix-blend-mode:multiply" opacity="0.97">
<path d="M289 116.86C302.13 104.49 323 104.98 336 117.86C337 118.59 373.06 154.86 373.35 155.22C374.78 157.05 436.3 219.93 435.81 221.22C447.81 234.28 447.32 254.92 434.44 267.91C434.05 268.39 408.79 293.69 408.38 294.15C407.25 295.45 333.7 368.23 331.96 368.81C325.671 374.862 317.317 378.297 308.59 378.42C299.863 378.542 291.416 375.343 284.96 369.47C282.44 369.94 233.96 323.65 233.7 323.47C233.44 323.29 202.7 291.59 202.78 289.83C202.78 289.15 182.78 268.26 182.92 267.48C170.92 253.99 171.35 232.81 184.35 219.38C185.35 217.8 286.52 117.08 289 116.86Z" fill="#D2D3D4"/>
</g>
<g style="mix-blend-mode:multiply">
<path d="M434.63 218.19C437.656 221.207 440.057 224.792 441.695 228.739C443.333 232.685 444.176 236.917 444.176 241.19C444.176 245.463 443.333 249.694 441.695 253.641C440.057 257.588 437.656 261.173 434.63 264.19L334.68 364.14C331.665 367.17 328.081 369.574 324.134 371.214C320.187 372.854 315.954 373.699 311.68 373.699C307.406 373.699 303.173 372.854 299.226 371.214C295.279 369.574 291.695 367.17 288.68 364.14L188.68 264.19C185.657 261.171 183.26 257.585 181.624 253.639C179.988 249.692 179.146 245.462 179.146 241.19C179.146 236.918 179.988 232.688 181.624 228.741C183.26 224.795 185.657 221.209 188.68 218.19L288.68 118.19C291.7 115.169 295.285 112.772 299.232 111.137C303.178 109.502 307.408 108.66 311.68 108.66C315.952 108.66 320.182 109.502 324.128 111.137C328.074 112.772 331.66 115.169 334.68 118.19L434.63 218.19Z" fill="#D0D2D3"/>
</g>
</g>
<path d="M332.31 375.88C329.968 378.223 327.188 380.081 324.127 381.349C321.067 382.616 317.787 383.269 314.475 383.269C311.163 383.269 307.883 382.616 304.823 381.349C301.762 380.081 298.982 378.223 296.64 375.88L173.43 252.66C171.088 250.318 169.229 247.538 167.962 244.478C166.694 241.418 166.042 238.138 166.042 234.825C166.042 231.513 166.694 228.233 167.962 225.173C169.229 222.113 171.088 219.332 173.43 216.99L296.64 93.7904C298.982 91.448 301.762 89.5898 304.823 88.3221C307.883 87.0544 311.163 86.4019 314.475 86.4019C317.787 86.4019 321.067 87.0544 324.127 88.3221C327.188 89.5898 329.968 91.448 332.31 93.7904L455.51 217C457.852 219.342 459.711 222.123 460.978 225.183C462.246 228.243 462.899 231.523 462.899 234.835C462.899 238.148 462.246 241.428 460.978 244.488C459.711 247.548 457.852 250.328 455.51 252.67L332.31 375.88Z" fill="white"/>
<path opacity="0.2" d="M332.31 374.11C329.969 376.455 327.189 378.315 324.129 379.585C321.069 380.854 317.788 381.507 314.475 381.507C311.162 381.507 307.881 380.854 304.821 379.585C301.761 378.315 298.981 376.455 296.64 374.11L173.43 250.91C171.088 248.568 169.229 245.788 167.962 242.728C166.694 239.668 166.042 236.388 166.042 233.075C166.042 229.763 166.694 226.483 167.962 223.423C169.229 220.363 171.088 217.582 173.43 215.24L296.64 92.0004C298.982 89.6579 301.762 87.7998 304.823 86.5321C307.883 85.2643 311.163 84.6118 314.475 84.6118C317.787 84.6118 321.067 85.2643 324.127 86.5321C327.188 87.7998 329.968 89.6579 332.31 92.0004L455.51 215.21C457.852 217.552 459.711 220.333 460.978 223.393C462.246 226.453 462.899 229.733 462.899 233.045C462.899 236.358 462.246 239.638 460.978 242.698C459.711 245.758 457.852 248.538 455.51 250.88L332.31 374.11Z" fill="url(#paint0_linear)"/>
<g style="mix-blend-mode:multiply" opacity="0.15">
<g style="mix-blend-mode:multiply" opacity="0.03">
<path d="M458.26 297.29C478.91 295.16 501.26 306.68 520.61 321.63C543.43 339.21 563.05 362.21 569.94 371.01C604.23 414.75 608.83 451.76 597.18 483.15C590.56 502.2 578.4 520.04 564.26 537.15C554.93 548.52 544.17 560.32 534.41 571.52C507.33 602.61 465.56 625.65 424.01 639.64C403.881 646.55 383.218 651.794 362.23 655.32C301.9 666.77 248.49 664.24 240.86 659.41C233.23 654.58 225.07 622 226.77 580C227.42 563.94 228.87 545.88 232.64 527.79C238.41 498.23 249.21 467.02 267.1 438.53C290.77 400.53 399.37 302.51 458.26 297.29Z" fill="#FDFEFE"/>
</g>
<g style="mix-blend-mode:multiply" opacity="0.06">
<path d="M458 298.38C478.3 295.99 500.48 307.12 519.49 321.91C541.55 338.91 561.49 362.11 568.15 370.62C601.29 412.9 607.43 450.36 596.15 480.7C590.09 499.46 578.34 517.25 564.33 534.15C555.33 545.15 544.22 557.23 534.79 568.06C508.61 598.11 466.26 622.36 426.09 635.89C406.327 642.865 385.94 647.925 365.21 651C306.89 662.07 253.99 658.35 246.62 653.68C239.25 649.01 230.49 616.62 232.13 576.03C232.76 560.51 233.64 542.52 237.28 525.03C242.52 496.12 252.96 465.4 270.59 437.52C293.47 400.85 401.11 303.43 458 298.38Z" fill="#FCFCFC"/>
</g>
<g style="mix-blend-mode:multiply" opacity="0.1">
<path d="M457.82 299.48C477.77 296.81 499.75 307.56 518.45 322.19C539.75 338.6 560.01 362.01 566.45 370.19C598.45 411.01 606.12 448.93 595.25 478.19C589.75 496.65 578.4 514.39 564.53 531.06C555.81 541.67 544.41 554.06 535.3 564.5C510.03 593.5 467.09 618.98 428.3 632.04C408.871 639.129 388.714 644.032 368.2 646.66C311.89 657.36 259.5 652.45 252.38 647.94C245.26 643.43 235.93 611.27 237.51 572.08C238.12 557.08 238.41 539.18 241.93 522.29C246.64 494.02 256.72 463.8 274.09 436.53C296.17 401.16 402.85 304.34 457.82 299.48Z" fill="#FAFBFB"/>
</g>
<g style="mix-blend-mode:multiply" opacity="0.13">
<path d="M457.6 300.57C477.19 297.64 498.98 308 517.37 322.47C537.92 338.29 558.49 361.91 564.69 369.83C595.55 409.19 604.76 447.57 594.27 475.83C589.33 493.99 578.39 511.68 564.65 528.12C556.24 538.35 544.51 551.02 535.73 561.12C511.36 589.12 467.84 615.77 430.43 628.36C411.35 635.541 391.439 640.279 371.17 642.46C316.87 652.77 264.99 646.68 258.17 642.34C251.35 638 241.34 606 242.86 568.23C243.45 553.79 243.16 535.94 246.56 519.65C250.73 492.03 260.46 462.31 277.56 435.65C298.87 401.47 404.59 305.26 457.6 300.57Z" fill="#F9F9F9"/>
</g>
<g style="mix-blend-mode:multiply" opacity="0.16">
<path d="M457.37 301.66C476.62 298.46 498.21 308.44 516.3 322.75C536.08 338 557 361.81 562.94 369.44C592.65 407.34 603.4 446.17 593.3 473.37C588.91 491.24 578.38 508.88 564.77 525.09C556.68 534.94 544.63 547.9 536.17 557.61C512.7 584.55 468.59 612.43 432.58 624.55C413.847 631.828 394.173 636.4 374.15 638.13C321.86 648.06 270.49 640.78 263.88 636.6C257.27 632.42 246.76 600.71 248.23 564.32C248.79 550.4 247.93 532.63 251.23 516.94C254.87 489.94 264.23 460.74 281.09 434.69C301.58 401.78 406.34 306.18 457.37 301.66Z" fill="#F7F8F8"/>
</g>
<g style="mix-blend-mode:multiply" opacity="0.19">
<path d="M457.15 302.75C476.05 299.29 497.44 308.89 515.22 323.03C534.22 337.68 555.45 361.71 561.22 369.03C589.79 405.48 602.07 444.76 592.36 470.92C588.53 488.49 578.36 506.09 564.93 522.06C557.15 531.53 544.77 544.78 536.64 554.06C514.07 579.97 469.38 609.06 434.75 620.71C416.366 628.086 396.927 632.495 377.16 633.77C326.88 643.32 276.01 634.85 269.66 630.83C263.31 626.81 252.21 595.33 253.66 560.34C254.21 546.96 252.76 529.26 255.91 514.18C259.02 487.85 268.02 459.11 284.62 433.68C304.28 402.09 408.08 307.1 457.15 302.75Z" fill="#F6F6F6"/>
</g>
<g style="mix-blend-mode:multiply" opacity="0.23">
<path d="M456.93 303.84C475.48 300.11 496.67 309.33 514.14 323.31C532.4 337.37 553.93 361.61 559.44 368.65C586.87 403.65 600.68 443.38 591.36 468.49C588.09 485.76 578.36 503.31 565.03 519.05C557.56 528.14 544.86 541.68 537.03 550.64C515.39 575.51 470.11 605.8 436.86 617C418.823 624.47 399.615 628.715 380.11 629.54C331.84 638.71 281.48 629.05 275.38 625.19C269.28 621.33 257.6 590.07 259 556.48C259.52 543.64 257.5 526.01 260.51 511.48C263.1 485.8 271.74 457.55 288.08 432.73C307 402.4 409.82 308 456.93 303.84Z" fill="#F4F5F5"/>
</g>
<g style="mix-blend-mode:multiply" opacity="0.26">
<path d="M456.71 304.94C474.9 300.94 495.9 309.77 513.07 323.59C530.57 337.07 552.41 361.51 557.69 368.26C584 401.79 599.32 442 590.39 466C587.68 483 578.39 500.48 565.15 516C558 524.71 544.97 538.54 537.49 547.12C516.73 571 470.87 602.49 439 613.22C421.304 620.775 402.318 624.849 383.08 625.22C336.82 634.01 286.97 623.16 281.08 619.46C275.19 615.76 263 584.76 264.32 552.56C264.82 540.26 262.22 522.7 265.11 508.82C267.17 483.82 275.45 456.04 291.53 431.82C309.68 402.71 411.56 308.93 456.71 304.94Z" fill="#F3F3F4"/>
</g>
<g style="mix-blend-mode:multiply" opacity="0.29">
<path d="M456.49 306C474.33 301.74 495.13 310.18 511.99 323.84C528.73 336.74 550.89 361.38 555.99 367.84C581.13 399.92 597.99 440.56 589.47 463.58C587.32 480.25 578.41 497.71 565.33 512.98C558.49 521.32 545.13 535.44 537.98 543.65C518.12 566.45 471.68 599.16 441.2 609.42C423.854 617.085 405.084 621 386.12 620.91C341.87 629.31 292.53 617.28 286.94 613.74C281.35 610.2 268.5 579.42 269.74 548.63C270.22 536.85 267.04 519.37 269.8 506.09C271.516 479.252 280.201 453.325 295 430.87C312.38 403 413.3 309.85 456.49 306Z" fill="#F1F2F2"/>
</g>
<g style="mix-blend-mode:multiply" opacity="0.32">
<path d="M456.26 307.12C473.76 302.59 494.36 310.65 510.91 324.12C526.91 336.43 549.36 361.28 554.19 367.44C578.19 398.05 596.61 439.16 588.45 461.13C586.86 477.5 578.35 494.92 565.45 509.95C558.91 517.95 545.24 532.32 538.45 540.16C519.45 561.92 472.45 595.84 443.37 605.63C426.368 613.405 407.807 617.168 389.12 616.63C346.89 624.63 298.06 611.43 292.72 608.05C287.38 604.67 273.95 574.12 275.14 544.73C275.59 533.49 271.83 516.07 274.47 503.4C275.669 477.164 284.009 451.754 298.59 429.91C315.08 403.33 415 310.77 456.26 307.12Z" fill="#F0F0F1"/>
</g>
<g style="mix-blend-mode:multiply" opacity="0.35">
<path d="M456 308.21C473.15 303.42 493.54 311.09 509.8 324.43C525.01 336.15 547.8 361.21 552.4 367.07C575.26 396.23 595.21 437.79 587.4 458.71C586.4 474.79 578.26 492.16 565.46 506.96C559.23 514.54 545.23 529.23 538.73 536.7C520.67 557.43 473.06 592.56 445.36 601.88C428.715 609.733 410.378 613.324 392 612.33C351.78 619.97 303.46 605.56 298.37 602.33C293.28 599.1 279.27 568.78 280.37 540.79C280.8 530.09 276.46 512.79 278.98 500.68C279.666 475.081 287.653 450.212 302 429C317.78 403.64 416.78 311.69 456 308.21Z" fill="#EEEFEF"/>
</g>
<g style="mix-blend-mode:multiply" opacity="0.39">
<path d="M455.82 309.3C472.61 304.24 492.82 311.53 508.76 324.72C523.21 335.85 546.32 361.11 550.69 366.72C572.4 394.42 593.89 436.43 586.51 456.31C586.04 472.09 578.34 489.41 565.66 503.98C559.75 511.18 545.43 526.16 539.25 533.26C522.1 552.95 473.9 589.26 447.58 598.14C430.85 606.39 411.43 609.64 395 608.07C356.79 615.33 309 599.73 304.15 596.68C299.3 593.63 284.71 563.53 285.79 536.93C286.2 526.77 281.28 509.49 283.67 498.03C283.783 473.04 291.383 448.658 305.49 428.03C320.48 404 418.52 312.61 455.82 309.3Z" fill="#EDEEEE"/>
</g>
<g style="mix-blend-mode:multiply" opacity="0.42">
<path d="M455.6 310.4C472 305.07 492 312 507.68 325C521.38 335.55 544.8 361 548.94 366.29C569.51 392.53 592.53 435 585.54 453.83C585.63 469.31 578.33 486.58 565.79 500.92C560.19 507.74 545.54 523.01 539.69 529.73C523.44 548.39 474.69 585.93 449.69 594.33C433.31 602.68 414.05 605.75 397.95 603.73C361.75 610.6 314.45 593.83 309.87 590.93C305.29 588.03 290.13 558.17 291.15 533C291.54 523.36 286.04 506.16 288.31 495.3C287.883 470.944 295.121 447.069 309 427.05C323.18 404.26 420.26 313.53 455.6 310.4Z" fill="#EBECED"/>
</g>
<g style="mix-blend-mode:multiply" opacity="0.45">
<path d="M455.38 311.49C471.47 305.89 491.27 312.42 506.61 325.28C519.54 335.28 543.28 360.91 547.19 365.89C566.62 390.68 591.19 433.6 584.57 451.38C585.21 466.57 578.33 483.8 565.92 497.9C560.63 504.34 545.65 519.9 540.13 526.25C524.78 543.87 475.41 582.62 451.87 590.55C435.87 599 416.72 601.9 400.96 599.43C366.77 605.92 319.96 587.96 315.65 585.22C311.34 582.48 295.55 552.85 296.52 529.06C296.88 519.96 290.81 502.83 292.94 492.57C291.82 471.43 297.94 446.63 312.47 426.09C325.88 404.57 422 314.44 455.38 311.49Z" fill="#EAEBEB"/>
</g>
<g style="mix-blend-mode:multiply" opacity="0.48">
<path d="M455.15 312.58C470.89 306.72 490.5 312.86 505.53 325.58C517.7 334.95 541.76 360.83 545.44 365.52C563.73 388.84 589.82 432.22 583.6 448.96C584.8 463.85 578.32 481.03 566.05 494.9C561.05 500.96 545.77 516.81 540.56 522.79C526.12 539.37 476.17 579.33 454.01 586.79C438.32 595.34 419.37 598.07 403.94 595.15C371.76 601.26 325.47 582.15 321.4 579.53C317.33 576.91 300.98 547.53 301.88 525.16C302.23 516.6 295.57 499.54 297.58 489.88C295.93 469.39 301.69 445.08 315.96 425.16C328.58 404.88 423.74 315.36 455.15 312.58Z" fill="#E8E9EA"/>
</g>
<g style="mix-blend-mode:multiply" opacity="0.52">
<path d="M454.93 313.67C470.32 307.54 489.73 313.3 504.45 325.84C515.86 334.63 540.24 360.71 543.69 365.11C560.83 386.97 588.46 430.8 582.63 446.5C584.39 461.09 578.31 478.22 566.17 491.86C561.5 497.54 545.88 513.68 541 519.28C527.46 534.83 476.93 576 456.15 583C440.81 591.66 422.02 594.22 406.92 590.84C376.75 596.57 330.97 576.23 327.16 573.84C323.35 571.45 306.4 542.25 307.25 521.25C307.57 513.25 300.34 496.25 302.25 487.19C300.07 467.34 305.47 443.52 319.48 424.19C331.29 405.19 425.49 316.28 454.93 313.67Z" fill="#E7E8E8"/>
</g>
<g style="mix-blend-mode:multiply" opacity="0.55">
<path d="M454.71 314.77C469.71 308.37 488.96 313.77 503.38 326.12C514.03 334.32 538.72 360.61 541.94 364.71C557.94 385.12 587.1 429.41 581.66 444.05C583.98 458.35 578.31 475.43 566.3 488.83C561.94 494.14 546 510.57 541.44 515.83C528.81 530.34 477.69 572.71 458.3 579.24C443.3 588 424.67 590.39 409.9 586.56C381.74 591.9 336.47 570.38 332.9 568.13C329.33 565.88 311.81 536.93 312.6 517.33C312.9 509.84 305.09 492.92 306.85 484.48C304.14 465.28 309.18 441.96 322.93 423.26C334 405.5 427.23 317.2 454.71 314.77Z" fill="#E5E6E7"/>
</g>
<g style="mix-blend-mode:multiply" opacity="0.58">
<path d="M454.49 315.86C469.18 309.19 488.19 314.18 502.3 326.4C512.19 334.02 537.2 360.5 540.19 364.32C555.05 383.27 585.74 428.01 580.69 441.61C583.57 455.61 578.3 472.61 566.43 485.81C562.43 490.74 546.11 507.46 541.88 512.31C530.15 525.79 478.45 569.37 460.44 575.44C445.79 584.29 427.31 586.51 412.87 582.23C386.73 587.23 341.97 564.48 338.66 562.39C335.35 560.3 317.24 531.58 317.98 513.39C318.26 506.39 309.86 489.58 311.5 481.74C308.26 463.19 312.94 440.36 326.43 422.27C336.69 405.81 429 318.12 454.49 315.86Z" fill="#E4E5E5"/>
</g>
<g style="mix-blend-mode:multiply" opacity="0.61">
<path d="M454.26 317C468.6 310.07 487.42 314.68 501.26 326.73C510.39 333.73 535.72 360.45 538.48 363.98C552.19 381.47 584.42 426.66 579.76 439.22C583.2 452.92 578.34 469.91 566.6 482.84C562.86 487.39 546.27 504.4 542.36 508.84C531.53 521.28 479.24 566.07 462.62 571.67C448.32 580.67 430 582.67 415.89 577.94C391.76 582.52 347.51 558.62 344.46 556.69C341.41 554.76 322.7 526.27 323.38 509.48C323.64 503.06 314.67 486.28 316.18 479.04C312.41 461.14 316.73 438.8 329.96 421.32C339.39 406.12 430.71 319 454.26 317Z" fill="#E2E3E4"/>
</g>
<g style="mix-blend-mode:multiply" opacity="0.65">
<path d="M454 318C468 310.8 486.6 315 500.1 326.92C508.47 333.37 534.1 360.26 536.65 363.49C549.22 379.49 582.98 425.18 578.71 436.68C582.71 450.09 578.25 467.03 566.64 479.68C563.22 483.85 546.3 501.15 542.72 505.26C532.79 516.65 479.92 562.66 464.72 567.79C450.72 576.85 432.6 578.73 418.82 573.54C396.7 577.74 352.96 552.65 350.16 550.88C347.36 549.11 328.07 520.88 328.7 505.46C328.93 499.57 319.38 482.87 320.77 476.23C316.46 458.98 320.42 437.13 333.4 420.23C342.09 406.43 432.45 320 454 318Z" fill="#E1E2E3"/>
</g>
<g style="mix-blend-mode:multiply" opacity="0.68">
<path d="M453.82 319.13C467.46 311.67 485.87 315.51 499.07 327.24C506.68 333.1 532.64 360.24 534.94 363.14C546.37 377.72 581.67 423.82 577.78 434.28C582.34 447.39 578.28 464.28 566.78 476.75C563.67 480.54 546.42 498.13 543.17 501.86C534.17 512.23 480.69 559.44 466.84 564.1C453.23 573.26 435.23 574.97 421.78 569.33C401.67 573.14 358.43 546.87 355.89 545.26C353.35 543.65 333.48 515.63 334.04 501.63C334.26 496.28 324.13 479.63 325.38 473.63C320.55 457.02 324.15 435.63 336.87 419.41C344.79 406.74 434.19 320.87 453.82 319.13Z" fill="#DFE1E1"/>
</g>
<g style="mix-blend-mode:multiply" opacity="0.71">
<path d="M453.6 320.23C466.89 312.49 485.1 315.95 497.99 327.53C504.84 332.8 531.12 360.1 533.19 362.74C543.48 375.86 580.31 422.42 576.81 431.84C581.93 444.65 578.28 461.49 566.94 473.73C564.14 477.14 546.57 495.02 543.64 498.38C535.52 507.71 481.48 556.13 469.01 560.32C455.75 569.59 437.9 571.12 424.79 565.02C406.69 568.46 363.96 541.02 361.68 539.56C359.4 538.1 338.93 510.31 339.44 497.72C339.63 492.9 328.92 476.34 330.05 470.91C324.69 454.91 327.93 434.09 340.39 418.45C347.49 407.05 435.93 321.79 453.6 320.23Z" fill="#DEDFE0"/>
</g>
<g style="mix-blend-mode:multiply" opacity="0.74">
<path d="M453.38 321.32C466.31 313.32 484.33 316.39 496.91 327.81C503 332.49 529.6 360 531.44 362.35C540.58 374.01 578.95 421.02 575.84 429.35C581.51 441.86 578.27 458.67 567.06 470.67C564.57 473.67 546.68 491.87 544.06 494.85C536.84 503.14 482.22 552.77 471.13 556.51C458.22 565.87 440.53 567.23 427.75 560.68C411.66 563.74 369.44 535.09 367.41 533.81C365.38 532.53 344.35 505 344.8 493.8C344.97 489.52 333.69 473.03 334.69 468.2C328.8 452.89 331.69 432.52 343.88 417.49C350.19 407.36 437.67 322.71 453.38 321.32Z" fill="#DCDEDE"/>
</g>
<g style="mix-blend-mode:multiply" opacity="0.77">
<path d="M453.15 322.41C465.74 314.15 483.56 316.83 495.84 328.09C501.16 332.19 528.08 359.9 529.69 361.96C537.69 372.16 577.59 419.63 574.87 426.96C581.1 439.17 578.27 455.96 567.19 467.69C565.01 470.35 546.8 488.81 544.52 491.42C538.2 498.67 482.99 549.51 473.3 552.78C460.73 562.24 443.2 563.44 430.75 556.43C416.67 559.11 374.96 529.27 373.18 528.15C371.4 527.03 349.77 499.69 350.18 489.89C350.33 486.14 338.46 469.73 339.34 465.5C332.92 450.84 335.44 430.96 347.34 416.55C352.89 407.68 439.41 323.63 453.15 322.41Z" fill="#DBDCDD"/>
</g>
<g style="mix-blend-mode:multiply" opacity="0.81">
<path d="M452.93 323.5C465.17 314.97 482.79 317.27 494.76 328.37C499.32 331.88 526.56 359.8 527.94 361.56C534.8 370.31 576.23 418.23 573.94 424.51C580.73 436.42 578.3 453.13 567.36 464.66C565.49 466.94 546.95 485.66 545 487.93C539.58 494.14 483.79 546.19 475.48 548.99C463.26 558.56 445.89 559.58 433.77 552.12C421.7 554.41 380.5 523.39 378.97 522.43C377.44 521.47 355.23 494.36 355.57 485.96C355.7 482.75 343.25 466.4 344.01 462.78C337.01 448.78 339.22 429.39 350.9 415.58C355.59 408 441.15 324.55 452.93 323.5Z" fill="#D9DBDC"/>
</g>
<g style="mix-blend-mode:multiply" opacity="0.84">
<path d="M452.71 324.59C464.59 315.8 482.02 317.72 493.71 328.65C497.52 331.58 525.07 359.7 526.22 361.17C531.93 368.46 574.9 416.83 572.96 422.06C580.31 433.68 578.29 450.34 567.48 461.64C565.92 463.54 547.05 482.58 545.43 484.44C540.92 489.62 484.54 542.88 477.61 545.21C465.74 554.88 448.52 555.73 436.74 547.82C426.68 549.73 385.99 517.53 384.74 516.72C383.49 515.91 360.61 489 360.9 482C361 479.33 347.98 463 348.61 460C341.13 446.63 342.93 427.74 354.35 414.55C358.3 408.3 442.9 325.46 452.71 324.59Z" fill="#D8D9DA"/>
</g>
<g style="mix-blend-mode:multiply" opacity="0.87">
<path d="M452.49 325.69C464.02 316.62 481.25 318.16 492.61 328.93C495.61 331.27 523.52 359.6 524.44 360.77C529.01 366.61 573.52 415.44 571.96 419.62C579.87 430.94 578.25 447.56 567.57 458.62C566.33 460.14 547.14 479.47 545.84 480.96C542.23 485.1 485.27 539.57 479.73 541.43C468.2 551.2 451.14 551.89 439.73 543.52C431.68 545.05 391.5 511.66 390.48 511.01C389.46 510.36 366.08 483.73 366.3 478.13C366.39 475.99 352.78 459.78 353.3 457.37C345.3 444.65 346.73 426.25 357.89 413.67C361 408.61 444.64 326.38 452.49 325.69Z" fill="#D6D8D9"/>
</g>
<g style="mix-blend-mode:multiply" opacity="0.9">
<path d="M452.27 326.78C463.45 317.45 480.48 318.6 491.53 329.21C493.81 330.97 522 359.5 522.69 360.38C526.12 364.75 572.16 414.04 570.99 417.18C579.46 428.18 578.24 444.77 567.7 455.6C566.77 456.74 547.25 476.35 546.28 477.48C543.57 480.58 486.03 536.26 481.87 537.65C470.69 547.53 453.79 548.04 442.66 539.22C436.66 540.37 396.96 505.79 396.19 505.3C395.42 504.81 371.46 478.41 371.63 474.21C371.69 472.6 357.51 456.47 357.88 454.66C349.34 442.59 350.42 424.66 361.33 412.66C363.7 408.92 446.38 327.3 452.27 326.78Z" fill="#D5D6D7"/>
</g>
<g style="mix-blend-mode:multiply" opacity="0.94">
<path d="M452 327.87C462.84 318.27 479.66 319.04 490.41 329.49C491.94 330.66 520.41 359.4 520.9 359.99C523.19 362.9 570.76 412.64 569.98 414.73C578.98 425.46 578.2 441.98 567.79 452.58C567.17 453.34 547.33 473.24 546.68 473.99C544.87 476.06 486.74 532.99 483.97 533.88C473.14 543.88 456.4 544.19 445.6 534.88C441.6 535.64 402.41 499.88 401.91 499.56C401.41 499.24 376.84 473.05 376.91 470.25C376.96 469.18 362.19 453.12 362.44 451.91C353.37 440.49 354.09 423.07 364.74 411.72C366.4 409.23 448.12 328.22 452 327.87Z" fill="#D3D5D6"/>
</g>
<g style="mix-blend-mode:multiply" opacity="0.97">
<path d="M451.82 329C462.3 319.14 478.93 319.52 489.38 329.81C490.14 330.4 518.96 359.34 519.19 359.63C520.33 361.09 569.44 411.28 569.05 412.33C578.64 422.76 578.23 439.23 567.96 449.6C567.64 449.98 547.48 470.17 547.16 470.55C546.25 471.55 487.54 529.67 486.16 530.14C481.139 534.979 474.465 537.725 467.493 537.821C460.521 537.918 453.773 535.358 448.62 530.66C446.62 531.04 407.95 494.09 407.7 493.93C407.45 493.77 382.3 467.81 382.36 466.41C382.36 465.88 367.04 449.89 367.16 449.28C357.56 438.51 357.92 421.59 368.31 410.84C369.1 409.54 449.86 329.14 451.82 329Z" fill="#D2D3D4"/>
</g>
<g style="mix-blend-mode:multiply">
<path d="M568.08 409.85C570.493 412.257 572.408 415.116 573.714 418.264C575.02 421.412 575.693 424.787 575.693 428.195C575.693 431.603 575.02 434.978 573.714 438.126C572.408 441.274 570.493 444.133 568.08 446.54L488.3 526.32C485.896 528.74 483.037 530.66 479.887 531.97C476.738 533.28 473.361 533.955 469.95 533.955C466.539 533.955 463.162 533.28 460.013 531.97C456.863 530.66 454.004 528.74 451.6 526.32L371.8 446.54C366.948 441.668 364.224 435.071 364.224 428.195C364.224 421.319 366.948 414.723 371.8 409.85L451.6 330.05C456.473 325.196 463.071 322.47 469.95 322.47C476.829 322.47 483.427 325.196 488.3 330.05L568.08 409.85Z" fill="#D0D2D3"/>
</g>
</g>
<path d="M486.41 535.72C482.632 539.491 477.513 541.609 472.175 541.609C466.837 541.609 461.718 539.491 457.94 535.72L359.59 437.36C357.721 435.492 356.238 433.274 355.226 430.832C354.215 428.39 353.694 425.773 353.694 423.13C353.694 420.488 354.215 417.87 355.226 415.429C356.238 412.987 357.721 410.769 359.59 408.9L457.94 310.55C459.809 308.68 462.028 307.196 464.47 306.183C466.913 305.171 469.531 304.649 472.175 304.649C474.819 304.649 477.437 305.171 479.88 306.183C482.322 307.196 484.541 308.68 486.41 310.55L584.75 408.9C586.619 410.769 588.102 412.987 589.114 415.429C590.125 417.87 590.646 420.488 590.646 423.13C590.646 425.773 590.125 428.39 589.114 430.832C588.102 433.274 586.619 435.492 584.75 437.36L486.41 535.72Z" fill="white"/>
<path opacity="0.2" d="M486.41 534.3C484.543 536.173 482.324 537.659 479.881 538.673C477.439 539.687 474.82 540.209 472.175 540.209C469.53 540.209 466.911 539.687 464.469 538.673C462.026 537.659 459.807 536.173 457.94 534.3L359.59 436C355.816 432.22 353.696 427.097 353.696 421.755C353.696 416.413 355.816 411.29 359.59 407.51L457.94 309.17C459.809 307.299 462.028 305.815 464.47 304.803C466.913 303.79 469.531 303.269 472.175 303.269C474.819 303.269 477.437 303.79 479.88 304.803C482.322 305.815 484.541 307.299 486.41 309.17L584.75 407.51C588.524 411.29 590.645 416.413 590.645 421.755C590.645 427.097 588.524 432.22 584.75 436L486.41 534.3Z" fill="url(#paint1_linear)"/>
<g style="mix-blend-mode:multiply" opacity="0.15">
<g style="mix-blend-mode:multiply" opacity="0.03">
<path d="M674.36 265.09C690.59 263.42 708.18 272.47 723.36 284.22C741.29 298 756.71 316.11 762.12 323C789.12 357.36 792.69 386.45 783.53 411.11C778.33 426.11 768.77 440.11 757.66 453.57C750.32 462.5 741.85 471.79 734.19 480.57C713 504.93 680.42 523 647.94 534C631.978 539.502 615.589 543.676 598.94 546.48C551.53 555.48 509.56 553.48 503.57 549.7C497.58 545.92 491.19 520.31 492.52 487.31C493 474 494.27 459 497.54 444C502.14 421.43 510.54 397.72 524.15 376C542.76 346.23 628.09 269.2 674.36 265.09Z" fill="#FDFEFE"/>
</g>
<g style="mix-blend-mode:multiply" opacity="0.06">
<path d="M674.18 266C690.18 264.12 707.58 272.87 722.51 284.49C739.85 297.84 755.51 316.08 760.75 322.77C786.75 355.99 791.62 385.43 782.75 409.27C777.98 424.01 768.75 437.99 757.75 451.27C750.66 459.9 741.91 469.44 734.5 477.95C714 501.4 681 520.37 649.61 531C633.917 536.571 617.721 540.609 601.25 543.06C555.42 551.76 513.85 548.84 508.06 545.17C502.27 541.5 495.45 516.17 496.74 484.23C497.26 471.41 498.01 456.47 501.17 441.98C505.35 419.9 513.46 396.55 526.89 375.32C544.88 346.47 629.46 269.92 674.18 266Z" fill="#FCFCFC"/>
</g>
<g style="mix-blend-mode:multiply" opacity="0.1">
<path d="M674 266.81C689.68 264.72 707 273.17 721.66 284.66C738.4 297.55 754.31 315.95 759.36 322.41C784.51 354.48 790.54 384.28 782 407.3C777.67 421.81 768.75 435.75 757.85 448.85C751 457.18 741.98 466.98 734.85 475.19C715.09 497.87 681.61 517.77 651.3 528.03C635.887 533.678 619.891 537.586 603.61 539.68C559.36 548.08 518.19 544.23 512.61 540.68C507.03 537.13 499.75 512 501 481.18C501.5 468.81 501.75 453.92 504.8 439.93C508.57 418.33 516.4 395.35 529.64 374.57C547 346.72 630.82 270.64 674 266.81Z" fill="#FAFBFB"/>
</g>
<g style="mix-blend-mode:multiply" opacity="0.13">
<path d="M673.84 267.67C689.24 265.37 706.36 273.51 720.84 284.88C736.98 297.31 753.14 315.88 758.02 322.1C782.27 353.03 789.5 383.18 781.26 405.38C777.38 419.65 768.78 433.56 757.98 446.48C751.38 454.48 742.07 464.56 735.18 472.48C716.12 494.35 682.18 515.18 652.97 525.07C637.841 530.785 622.048 534.558 605.97 536.3C563.3 544.4 522.53 539.62 517.14 536.2C511.75 532.78 504 507.84 505.24 478.14C505.73 466.21 505.48 451.36 508.42 437.87C511.77 416.76 519.32 394.14 532.42 373.82C549.12 347 632.19 271.36 673.84 267.67Z" fill="#F9F9F9"/>
</g>
<g style="mix-blend-mode:multiply" opacity="0.16">
<path d="M673.66 268.53C688.79 266.01 705.76 273.86 719.97 285.1C735.52 297.1 751.97 315.8 756.62 321.79C779.98 351.57 788.42 382.08 780.48 403.46C777.03 417.46 768.75 431.37 758.06 444.1C751.7 451.84 742.12 462.1 735.48 469.76C717.13 490.82 682.76 512.58 654.61 522.11C639.754 527.894 624.151 531.534 608.27 532.92C567.18 540.73 526.81 535 521.62 531.72C516.43 528.44 508.34 503.72 509.49 475.1C509.96 463.61 509.22 448.81 512.05 435.82C514.99 415.19 522.25 392.93 535.12 373.06C551.24 347.2 633.56 272.09 673.66 268.53Z" fill="#F7F8F8"/>
</g>
<g style="mix-blend-mode:multiply" opacity="0.19">
<path d="M673.49 269.38C688.34 266.66 705.15 274.21 719.13 285.32C734.07 296.84 750.73 315.72 755.25 321.48C777.7 350.12 787.35 380.99 779.72 401.54C776.72 415.35 768.72 429.18 758.16 441.73C752.05 449.17 742.16 459.73 735.8 467.05C718.15 487.3 683.35 509.98 656.28 519.14C641.703 525.002 626.288 528.512 610.61 529.54C571.1 537.05 531.13 530.39 526.14 527.23C521.15 524.07 512.63 499.55 513.75 472.05C514.19 461.05 512.96 446.25 515.68 433.76C518.364 411.871 525.945 390.868 537.86 372.31C553.37 347.45 634.93 272.81 673.49 269.38Z" fill="#F6F6F6"/>
</g>
<g style="mix-blend-mode:multiply" opacity="0.23">
<path d="M673.31 270.24C687.89 267.31 704.55 274.55 718.31 285.54C732.66 296.6 749.57 315.64 753.9 321.17C775.46 348.66 786.31 379.89 778.99 399.62C776.42 413.19 768.77 426.98 758.29 439.36C752.42 446.5 742.29 457.29 736.15 464.36C719.21 483.8 683.96 507.41 657.98 516.21C643.678 522.142 628.448 525.526 612.98 526.21C575.05 533.41 535.48 525.82 530.69 522.79C525.9 519.76 516.93 495.41 518 469C518.42 458.39 516.7 443.69 519.31 431.7C521.574 410.254 528.868 389.645 540.6 371.55C555.49 347.69 636.3 273.53 673.31 270.24Z" fill="#F4F5F5"/>
</g>
<g style="mix-blend-mode:multiply" opacity="0.26">
<path d="M673.14 271.1C687.44 267.96 703.94 274.9 717.44 285.77C731.19 296.36 748.35 315.56 752.5 320.86C773.16 347.21 785.21 378.79 778.2 397.7C776.06 411.04 768.74 424.79 758.36 436.98C752.74 443.83 742.36 454.87 736.44 461.62C720.21 480.25 684.52 504.79 659.62 513.22C645.594 519.225 630.544 522.474 615.29 522.79C578.95 529.69 539.78 521.17 535.18 518.26C530.58 515.35 521.23 491.26 522.25 465.97C522.66 455.8 520.44 441.14 522.94 429.65C524.789 408.654 531.8 388.441 543.35 370.81C557.61 347.93 637.67 274.25 673.14 271.1Z" fill="#F3F3F4"/>
</g>
<g style="mix-blend-mode:multiply" opacity="0.29">
<path d="M673 272C687 268.65 703.37 275.29 716.62 286C729.77 296.13 747.18 315.49 751.15 320.57C770.91 345.76 784.15 377.7 777.46 395.79C775.77 408.89 768.76 422.61 758.46 434.62C753.08 441.16 742.39 452.46 736.77 458.91C721.24 476.74 685.1 502.2 661.28 510.26C647.538 516.343 632.668 519.464 617.64 519.42C582.87 526.02 544.1 516.57 539.7 513.78C535.3 510.99 525.52 487.13 526.5 462.93C526.89 453.21 524.18 438.6 526.57 427.61C527.998 407.066 534.723 387.242 546.09 370.07C559.73 348.18 639 275 673 272Z" fill="#F1F2F2"/>
</g>
<g style="mix-blend-mode:multiply" opacity="0.32">
<path d="M672.79 272.82C686.54 269.26 702.73 275.59 715.79 286.21C728.35 295.88 746.01 315.4 749.79 320.21C768.65 344.27 783.12 376.56 776.71 393.83C775.46 406.7 768.77 420.38 758.6 432.2C753.47 438.45 742.49 450 737.13 456.2C722.31 473.2 685.73 499.6 662.99 507.3C649.511 513.44 634.806 516.416 620 516C586.81 522.3 548.44 511.91 544.24 509.26C540.04 506.61 529.84 482.95 530.77 459.85C531.14 450.57 527.93 436 530.22 425.51C531.226 405.426 537.665 385.992 548.85 369.28C561.86 348.42 640.4 275.69 672.79 272.82Z" fill="#F0F0F1"/>
</g>
<g style="mix-blend-mode:multiply" opacity="0.35">
<path d="M672.62 273.68C686.09 269.9 702.12 275.94 714.9 286.43C726.9 295.64 744.76 315.32 748.37 319.93C766.37 342.84 782.01 375.5 775.91 391.93C775.1 404.57 768.73 418.21 758.66 429.85C753.77 435.8 742.52 447.6 737.41 453.46C723.3 469.66 686.27 496.99 664.62 504.32C651.425 510.548 636.891 513.407 622.32 512.64C590.71 518.64 552.74 507.32 548.74 504.79C544.74 502.26 534.11 478.79 535 456.79C535.36 447.95 531.65 433.43 533.83 423.43C534.41 403.811 540.563 384.762 551.57 368.51C564 348.66 641.77 276.41 672.62 273.68Z" fill="#EEEFEF"/>
</g>
<g style="mix-blend-mode:multiply" opacity="0.39">
<path d="M672.44 274.53C685.64 270.53 701.52 276.28 714.05 286.65C725.41 295.4 743.57 315.24 747.05 319.65C764.11 341.41 780.99 374.42 775.2 390.04C774.82 402.44 768.77 416.04 758.81 427.5C754.16 433.16 742.64 445.2 737.81 450.78C724.4 466.17 686.94 494.42 666.37 501.38C653.45 507.691 639.074 510.422 624.74 509.29C594.74 514.99 557.14 502.74 553.34 500.34C549.54 497.94 538.49 474.71 539.34 453.81C539.68 445.42 535.48 430.94 537.55 421.45C537.701 402.296 543.572 383.624 554.41 367.83C566.1 348.91 643.14 277.14 672.44 274.53Z" fill="#EDEEEE"/>
</g>
<g style="mix-blend-mode:multiply" opacity="0.42">
<path d="M672.27 275.39C685.19 271.2 700.91 276.63 713.2 286.87C723.96 295.16 742.37 315.16 745.62 319.32C761.79 339.93 779.88 373.32 774.39 388.1C774.45 400.27 768.72 413.84 758.86 425.1C754.46 430.46 742.66 442.75 738.06 448.03C725.35 462.63 687.44 491.8 668 498.4C655.342 504.8 641.103 507.401 627 505.89C598.55 511.29 561.38 498.11 557.78 495.83C554.18 493.55 542.7 470.55 543.5 450.75C543.82 442.75 539.13 428.37 541.09 419.37C540.821 400.689 546.417 382.394 557.09 367.06C568.22 349.15 644.51 277.86 672.27 275.39Z" fill="#EBECED"/>
</g>
<g style="mix-blend-mode:multiply" opacity="0.45">
<path d="M672.09 276.25C684.74 271.85 700.3 276.98 712.36 287.09C722.52 294.92 741.18 315.09 744.25 319.01C759.52 338.48 778.81 372.2 773.62 386.18C774.13 398.12 768.71 411.65 758.96 422.74C754.8 427.8 742.72 440.34 738.38 445.33C726.38 459.1 688.02 489.21 669.62 495.44C656.93 502.13 641.82 504.44 629.34 502.51C602.47 507.61 565.7 493.51 562.34 491.35C558.98 489.19 547.04 466.35 547.79 447.71C548.1 440.19 542.91 425.81 544.79 417.32C544.082 399.126 549.381 381.204 559.87 366.32C570.35 349.39 645.87 278.58 672.09 276.25Z" fill="#EAEBEB"/>
</g>
<g style="mix-blend-mode:multiply" opacity="0.48">
<path d="M671.92 277.11C684.29 272.5 699.7 277.32 711.51 287.31C721.08 294.68 739.98 315.01 742.87 318.7C757.24 337.02 777.74 371.1 772.87 384.26C773.81 395.96 768.72 409.46 759.07 420.36C755.16 425.12 742.8 437.92 738.71 442.61C727.42 455.61 688.62 486.61 671.3 492.47C658.88 499.24 643.9 501.41 631.69 499.13C606.4 503.93 570.03 488.88 566.83 486.86C563.63 484.84 551.3 462.26 552.01 444.66C552.3 437.59 546.62 423.26 548.36 415.26C547.1 399.5 551.57 380.84 562.55 365.55C572.47 349.64 647.24 279.3 671.92 277.11Z" fill="#E8E9EA"/>
</g>
<g style="mix-blend-mode:multiply" opacity="0.52">
<path d="M671.75 278C683.84 273.17 699.09 277.7 710.66 287.56C719.66 294.47 738.79 314.96 741.5 318.42C755 335.57 776.68 370 772.1 382.34C773.48 393.81 768.7 407.27 759.16 417.99C755.49 422.45 742.86 435.5 739.02 439.9C728.44 452.05 689.19 484 673 489.51C660.86 496.36 646 498.39 634.06 495.75C610.36 500.25 574.38 484.27 571.38 482.37C568.38 480.47 555.63 458.11 556.29 441.62C556.56 434.99 550.39 420.7 552.02 413.21C550.34 397.93 554.54 379.63 565.33 364.8C574.59 349.88 648.61 280 671.75 278Z" fill="#E7E8E8"/>
</g>
<g style="mix-blend-mode:multiply" opacity="0.55">
<path d="M671.57 278.82C683.39 273.82 698.49 278.02 709.82 287.75C718.19 294.2 737.6 314.85 740.12 318.08C752.7 334.08 775.61 368.91 771.34 380.42C773.16 391.66 768.7 405.08 759.26 415.61C755.84 419.78 742.92 433.08 739.35 437.18C729.46 448.52 689.78 481.42 674.62 486.55C662.77 493.47 648.04 495.37 636.36 492.37C614.24 496.57 578.66 479.66 575.86 477.89C573.06 476.12 559.86 453.97 560.51 438.57C560.76 432.39 554.08 418.15 555.61 411.15C553.52 396.37 557.43 378.43 568.03 364.05C576.71 350.13 650 280.74 671.57 278.82Z" fill="#E5E6E7"/>
</g>
<g style="mix-blend-mode:multiply" opacity="0.58">
<path d="M671.4 279.68C682.94 274.44 697.88 278.36 708.97 287.97C716.74 293.97 736.4 314.77 738.75 317.77C750.42 332.66 774.54 367.77 770.57 378.5C772.83 389.5 768.69 402.89 759.36 413.24C756.18 417.11 742.99 430.66 739.67 434.47C730.49 445 690.36 478.82 676.29 483.58C664.71 490.58 650.12 492.35 638.7 488.99C618.16 492.89 582.98 475.05 580.39 473.4C577.8 471.75 564.18 449.83 564.76 435.53C564.99 429.79 557.82 415.59 559.24 409.1C556.73 394.8 560.36 377.22 570.77 363.3C578.84 350.37 651.35 281.46 671.4 279.68Z" fill="#E4E5E5"/>
</g>
<g style="mix-blend-mode:multiply" opacity="0.61">
<path d="M671.22 280.54C682.49 275.09 697.22 278.71 708.13 288.19C715.3 293.72 735.21 314.69 737.37 317.46C748.15 331.2 773.47 366.71 769.81 376.58C772.51 387.35 768.69 400.69 759.46 410.87C756.53 414.44 743.06 428.23 739.99 431.75C731.52 441.48 690.99 476.22 677.99 480.62C666.69 487.7 652.22 489.33 641.07 485.62C622.07 489.22 587.33 470.44 584.94 468.93C582.55 467.42 568.5 445.69 569.04 432.5C569.25 427.19 561.59 413.05 562.9 407.05C559.97 393.24 563.32 376.05 573.55 362.56C581 350.61 652.71 282.18 671.22 280.54Z" fill="#E2E3E4"/>
</g>
<g style="mix-blend-mode:multiply" opacity="0.65">
<path d="M671.05 281.4C682.05 275.74 696.67 279.06 707.28 288.4C713.86 293.47 734.01 314.6 736 317.14C745.88 329.74 772.41 365.6 769 374.65C772.14 385.19 768.64 398.49 759.51 408.48C756.82 411.76 743.07 425.8 740.26 429.03C732.5 437.94 691.49 473.62 679.58 477.65C668.58 484.8 654.22 486.3 643.33 482.22C625.95 485.52 591.57 465.81 589.33 464.42C587.09 463.03 572.67 441.53 573.16 429.42C573.35 424.56 565.16 410.42 566.4 404.96C563.05 391.64 566.12 374.78 576.16 361.78C583.08 350.86 654.08 282.91 671.05 281.4Z" fill="#E1E2E3"/>
</g>
<g style="mix-blend-mode:multiply" opacity="0.68">
<path d="M670.87 282.26C681.59 276.39 696.06 279.4 706.43 288.63C712.43 293.24 732.82 314.53 734.62 316.84C743.62 328.29 771.34 364.52 768.29 372.74C771.87 383.04 768.68 396.31 759.66 406.12C757.22 409.12 743.19 423.39 740.66 426.32C733.6 434.43 692.14 471.03 681.31 474.69C670.57 481.93 656.36 483.28 645.74 478.85C629.94 481.85 595.96 461.21 593.97 459.95C591.98 458.69 577.09 437.4 577.53 426.4C577.71 421.98 569.06 407.93 570.15 402.93C566.38 390.09 569.15 373.59 579.02 361.05C585.2 351.1 655.45 283.63 670.87 282.26Z" fill="#DFE1E1"/>
</g>
<g style="mix-blend-mode:multiply" opacity="0.71">
<path d="M670.7 283.12C681.14 277.04 695.45 279.75 705.59 288.85C710.97 293 731.59 314.45 733.25 316.53C741.33 326.84 770.25 363.42 767.52 370.82C771.52 380.89 768.68 394.12 759.76 403.74C757.56 406.42 743.26 420.97 740.96 423.61C734.61 430.9 692.71 468.43 682.96 471.73C672.49 479.04 658.42 480.26 648.07 475.47C633.84 478.17 600.27 456.6 598.47 455.47C596.67 454.34 581.36 433.26 581.76 423.37C581.92 419.37 572.76 405.37 573.76 400.88C569.57 388.53 572.08 372.39 581.76 360.31C587.32 351.34 656.82 284.35 670.7 283.12Z" fill="#DEDFE0"/>
</g>
<g style="mix-blend-mode:multiply" opacity="0.74">
<path d="M670.52 284C680.69 277.7 694.85 280.12 704.74 289.1C709.52 292.78 730.43 314.4 731.87 316.24C739.06 325.4 769.2 362.34 766.76 368.92C771.22 378.75 768.67 391.92 759.86 401.39C757.86 403.77 743.32 418.57 741.28 420.91C735.63 427.4 693.28 465.85 684.63 468.79C674.44 476.17 660.49 477.26 650.41 472.12C637.76 474.5 604.59 452 603 451C601.41 450 585.67 429.13 586 420.33C586.14 416.8 576.51 402.84 577.38 398.84C572.77 386.97 575.01 371.19 584.47 359.57C589.45 351.59 658.19 285.07 670.52 284Z" fill="#DCDEDE"/>
</g>
<g style="mix-blend-mode:multiply" opacity="0.77">
<path d="M670.35 284.83C680.24 278.33 694.24 280.44 703.89 289.3C708.08 292.52 729.23 314.3 730.5 315.91C736.78 323.91 768.14 361.22 766 366.98C770.9 376.58 768.67 389.74 760 398.98C758.29 401.07 743.43 416.12 741.64 418.17C736.7 423.84 693.92 463.23 686.34 465.79C676.42 473.26 662.61 474.21 652.79 468.71C641.72 470.81 608.95 447.37 607.55 446.48C606.15 445.59 590 425 590.26 417.27C590.39 414.18 580.26 400.27 581.02 396.76C576.02 385.39 577.95 369.97 587.23 358.76C591.57 351.83 659.55 285.79 670.35 284.83Z" fill="#DBDCDD"/>
</g>
<g style="mix-blend-mode:multiply" opacity="0.81">
<path d="M670.18 285.69C679.79 278.98 693.64 280.79 703.05 289.52C706.64 292.28 728.05 314.22 729.12 315.6C734.51 322.47 767.12 360.12 765.24 365.06C770.57 374.43 768.66 387.55 760.06 396.62C758.6 398.41 743.46 413.7 741.93 415.46C737.69 420.32 694.46 460.64 687.93 462.84C678.29 470.38 664.6 471.19 655.05 465.34C645.57 467.14 613.19 442.76 611.99 442C610.79 441.24 594.21 420.82 594.47 414.23C594.58 411.57 583.95 397.71 584.61 394.71C579.16 383.82 580.84 368.76 589.93 358.04C593.69 352.07 660.92 286.51 670.18 285.69Z" fill="#D9DBDC"/>
</g>
<g style="mix-blend-mode:multiply" opacity="0.84">
<path d="M670 286.55C679.34 279.63 693 281.14 702.2 289.74C705.2 292.04 726.85 314.14 727.75 315.29C732.24 321 766 359 764.48 363.14C770.25 372.27 768.66 385.36 760.16 394.25C758.94 395.73 743.52 411.25 742.25 412.75C738.72 416.8 695.05 458.04 689.63 459.88C680.27 467.49 666.72 468.17 657.43 461.96C649.53 463.46 617.55 438.15 616.55 437.52C615.55 436.89 598.55 416.68 598.76 411.18C598.85 408.97 587.76 395.18 588.28 392.65C582.41 382.25 583.81 367.55 592.71 357.29C595.81 352.32 662.29 287.23 670 286.55Z" fill="#D8D9DA"/>
</g>
<g style="mix-blend-mode:multiply" opacity="0.87">
<path d="M669.83 287.41C678.89 280.28 692.42 281.48 701.36 289.96C703.75 291.8 725.65 314.06 726.36 314.96C729.96 319.54 764.93 357.91 763.7 361.2C769.92 370.1 768.64 383.15 760.26 391.85C759.26 393.04 743.58 408.85 742.56 410.01C739.74 413.25 695.62 455.43 691.29 456.89C682.21 464.59 668.78 465.13 659.76 458.56C653.44 459.76 621.86 433.56 621.06 433.01C620.26 432.46 602.84 412.54 603 408.14C603.08 406.37 591.46 392.6 591.9 390.6C585.61 380.68 586.73 366.34 595.44 356.54C597.94 352.56 663.66 288 669.83 287.41Z" fill="#D6D8D9"/>
</g>
<g style="mix-blend-mode:multiply" opacity="0.9">
<path d="M669.65 288.27C678.44 280.93 691.82 281.83 700.51 290.18C702.3 291.56 724.51 313.98 725 314.67C727.69 318.11 763.87 356.83 763 359.3C769.66 367.97 768.7 380.98 760.41 389.5C759.68 390.39 743.71 406.44 742.94 407.32C740.82 409.75 696.27 452.85 693.02 453.95C684.21 461.72 670.92 462.13 662.16 455.2C657.42 456.1 626.24 428.93 625.64 428.55C625.04 428.17 607.18 408.39 607.32 405.09C607.37 403.77 595.26 390.09 595.59 388.54C588.88 379.11 589.72 365.13 598.25 355.79C600.06 352.81 665 288.68 669.65 288.27Z" fill="#D5D6D7"/>
</g>
<g style="mix-blend-mode:multiply" opacity="0.94">
<path d="M669.48 289.12C677.99 281.57 691.21 282.18 699.66 290.4C700.86 291.32 723.26 313.9 723.66 314.4C725.46 316.69 762.84 355.77 762.23 357.4C769.32 365.83 768.69 378.81 760.5 387.14C760.02 387.74 743.77 404.04 743.26 404.62C741.84 406.25 696.84 450.27 694.68 451.01C686.15 458.86 672.98 459.13 664.49 451.84C661.33 452.44 630.55 424.33 630.15 424.08C629.75 423.83 611.47 404.27 611.56 402.08C611.56 401.2 598.99 387.52 599.21 386.52C592.08 377.57 592.64 363.95 600.98 355.07C602.18 353.05 666.4 289.4 669.48 289.12Z" fill="#D3D5D6"/>
</g>
<g style="mix-blend-mode:multiply" opacity="0.97">
<path d="M669.31 290C673.358 286.272 678.692 284.257 684.194 284.376C689.696 284.495 694.937 286.74 698.82 290.64C699.41 291.1 722.07 313.84 722.25 314.07C723.15 315.22 761.73 354.66 761.43 355.48C765.066 359.543 767.005 364.847 766.845 370.297C766.684 375.747 764.439 380.928 760.57 384.77C760.32 385.07 743.79 401.62 743.57 401.91C742.86 402.72 697.42 447.68 696.33 448.04C692.385 451.847 687.139 454.009 681.658 454.087C676.177 454.165 670.871 452.153 666.82 448.46C665.24 448.76 634.82 419.72 634.66 419.6C634.5 419.48 615.72 400.11 615.77 399C615.77 398.55 602.69 384.92 602.77 384.42C599.106 380.203 597.163 374.762 597.326 369.178C597.489 363.595 599.747 358.276 603.65 354.28C604.3 353.29 667.76 290.12 669.31 290Z" fill="#D2D3D4"/>
</g>
<g style="mix-blend-mode:multiply">
<path d="M760.67 353.54C762.565 355.433 764.069 357.681 765.095 360.155C766.12 362.629 766.648 365.282 766.648 367.96C766.648 370.639 766.12 373.291 765.095 375.765C764.069 378.24 762.565 380.487 760.67 382.38L698 445.06C696.111 446.961 693.864 448.47 691.389 449.5C688.914 450.529 686.26 451.059 683.58 451.059C680.9 451.059 678.246 450.529 675.771 449.5C673.296 448.47 671.049 446.961 669.16 445.06L606.46 382.38C602.637 378.555 600.49 373.368 600.49 367.96C600.49 362.552 602.637 357.366 606.46 353.54L669.16 290.84C671.053 288.945 673.301 287.441 675.775 286.416C678.249 285.39 680.902 284.862 683.58 284.862C686.259 284.862 688.911 285.39 691.385 286.416C693.859 287.441 696.107 288.945 698 290.84L760.67 353.54Z" fill="#D0D2D3"/>
</g>
</g>
<path d="M696.49 452.46C693.518 455.42 689.494 457.081 685.3 457.081C681.106 457.081 677.082 455.42 674.11 452.46L596.83 375.17C595.36 373.702 594.194 371.959 593.399 370.039C592.603 368.12 592.194 366.063 592.194 363.985C592.194 361.908 592.603 359.851 593.399 357.932C594.194 356.012 595.36 354.269 596.83 352.8L674.11 275.51C677.078 272.544 681.103 270.877 685.3 270.877C689.497 270.877 693.522 272.544 696.49 275.51L773.76 352.8C775.23 354.269 776.396 356.012 777.191 357.932C777.987 359.851 778.396 361.908 778.396 363.985C778.396 366.063 777.987 368.12 777.191 370.039C776.396 371.959 775.23 373.702 773.76 375.17L696.49 452.46Z" fill="white"/>
<path opacity="0.2" d="M696.49 451.33C695.023 452.804 693.279 453.973 691.359 454.771C689.438 455.569 687.379 455.98 685.3 455.98C683.221 455.98 681.162 455.569 679.241 454.771C677.321 453.973 675.577 452.804 674.11 451.33L596.83 374.07C593.863 371.102 592.197 367.077 592.197 362.88C592.197 358.683 593.863 354.659 596.83 351.69L674.11 274.41C677.08 271.446 681.104 269.781 685.3 269.781C689.496 269.781 693.52 271.446 696.49 274.41L773.76 351.69C776.727 354.659 778.393 358.683 778.393 362.88C778.393 367.077 776.727 371.102 773.76 374.07L696.49 451.33Z" fill="url(#paint2_linear)"/>
<g style="mix-blend-mode:multiply" opacity="0.15">
<g style="mix-blend-mode:multiply" opacity="0.03">
<path d="M509.68 2.47026C540.23 -0.669743 573.33 16.3603 601.9 38.4703C635.65 64.4703 664.66 98.4703 674.9 111.47C725.63 176.17 732.43 230.92 715.2 277.34C705.4 305.52 687.41 331.9 666.5 357.25C652.69 374.06 636.78 391.51 622.35 408.07C582.29 454.07 520.48 488.16 459 508.85C429.244 519.053 398.701 526.803 367.68 532.02C278.4 549 199.45 545.29 188.16 538.17C176.87 531.05 164.82 482.79 167.33 420.68C168.33 395.84 170.66 367.77 176.75 339.68C185.41 297.07 201.21 252.31 226.93 211.34C262 155.18 422.57 10.2003 509.68 2.47026Z" fill="#FDFEFE"/>
</g>
<g style="mix-blend-mode:multiply" opacity="0.06">
<path d="M509.35 4.0902C539.35 0.550199 572.19 17.0202 600.3 38.8902C632.93 64.0202 662.41 98.3502 672.3 110.89C721.3 173.43 730.41 228.89 713.75 273.72C704.75 301.47 687.39 327.78 666.68 352.78C653.3 369.07 636.91 387 623 403C584.23 447.42 521.57 483.3 462.13 503.3C432.893 513.643 402.727 521.145 372.05 525.7C285.78 542.08 207.62 536.65 196.71 529.76C185.8 522.87 172.9 475 175.33 415C176.33 391 177.69 363 183.58 335.86C191.46 294.17 206.73 250.09 232.09 209.99C265.94 155.64 425.15 11.5602 509.35 4.0902Z" fill="#FCFCFC"/>
</g>
<g style="mix-blend-mode:multiply" opacity="0.1">
<path d="M509 5.70032C538.51 1.77032 571 17.7003 598.69 39.3103C630.19 63.5703 660.14 98.2003 669.69 110.31C717.04 170.69 728.38 226.78 712.3 270.11C704.15 297.41 687.37 323.65 666.85 348.31C653.96 364 637.09 382.31 623.62 397.77C586.23 440.69 522.7 478.36 465.32 497.68C436.593 508.147 406.794 515.397 376.47 519.3C293.17 535.11 215.8 527.97 205.27 521.3C194.74 514.63 181 467.18 183.32 409.21C184.26 386.02 184.73 358.13 190.42 331.93C197.5 291.16 212.25 247.76 237.25 208.53C269.94 156.1 427.72 12.9103 509 5.70032Z" fill="#FAFBFB"/>
</g>
<g style="mix-blend-mode:multiply" opacity="0.13">
<path d="M508.69 7.32045C537.69 2.99045 569.91 18.3205 597.12 39.7205C627.49 63.1205 657.91 98.0505 667.12 109.72C712.78 167.95 726.39 224.72 710.88 266.5C703.56 293.36 687.38 319.5 667.05 343.84C654.63 358.97 637.28 377.71 624.29 392.61C588.23 434.01 523.84 473.46 468.51 492.09C440.289 502.719 410.84 509.744 380.86 513C300.55 528.25 223.96 519.39 213.86 513C203.76 506.61 189.11 459.41 191.37 403.51C192.27 381.16 191.82 353.35 197.3 328.08C203.6 288.24 217.82 245.52 242.46 207.15C273.93 156.56 430.3 14.2705 508.69 7.32045Z" fill="#F9F9F9"/>
</g>
<g style="mix-blend-mode:multiply" opacity="0.16">
<path d="M508.36 8.94035C536.84 4.21035 568.77 18.9403 595.52 40.1404C624.77 62.6703 655.66 97.9004 664.52 109.14C708.52 165.21 724.38 222.65 709.44 262.88C702.94 289.31 687.36 315.41 667.23 339.37C655.23 353.94 637.44 373.11 624.93 387.46C590.21 427.32 524.93 468.57 471.67 486.46C443.971 497.204 414.888 503.965 385.29 506.54C307.95 521.22 232.16 510.65 222.38 504.47C212.6 498.29 197.16 451.47 199.33 397.66C200.2 376.13 198.83 348.42 204.11 324.08C209.62 285.16 223.31 243.08 247.6 205.62C277.93 157 432.87 15.6304 508.36 8.94035Z" fill="#F7F8F8"/>
</g>
<g style="mix-blend-mode:multiply" opacity="0.19">
<path d="M508 10.55C536 5.43001 567.6 19.63 593.9 40.55C622.03 62.22 653.39 97.75 661.9 108.6C704.18 162.51 722.34 220.6 707.97 259.31C702.31 285.31 687.32 311.31 667.39 334.94C655.88 348.94 637.58 368.55 625.55 382.35C592.17 420.68 526.04 463.71 474.81 480.95C447.623 491.837 418.884 498.354 389.66 500.26C315.3 514.38 240.3 502.09 230.89 496.15C221.48 490.21 205.21 443.76 207.3 392C208.14 371.3 205.84 343.68 210.92 320.28C215.64 282.28 228.81 240.92 252.74 204.28C281.92 157.48 435.45 17 508 10.55Z" fill="#F6F6F6"/>
</g>
<g style="mix-blend-mode:multiply" opacity="0.23">
<path d="M507.71 12.1703C535.14 6.65026 566.49 20.2803 592.34 40.9703C619.34 61.7603 651.17 97.6003 659.34 108.02C699.93 159.77 720.34 218.56 706.57 255.69C701.73 281.24 687.34 307.2 667.57 330.48C656.52 343.92 637.74 363.94 626.19 377.2C594.14 413.99 527.19 458.81 477.97 475.36C451.296 486.39 422.898 492.665 394.06 493.9C322.67 507.45 248.46 493.45 239.43 487.75C230.4 482.05 213.29 436 215.3 386.27C216.1 366.39 212.88 338.86 217.76 316.4C221.69 279.31 234.33 238.64 257.9 202.87C285.92 157.94 438 18.3403 507.71 12.1703Z" fill="#F4F5F5"/>
</g>
<g style="mix-blend-mode:multiply" opacity="0.26">
<path d="M507.38 13.7802C534.3 7.8702 565.38 20.9302 590.74 41.3802C616.62 61.3102 648.92 97.4502 656.74 107.43C695.63 157.03 718.33 216.49 705.11 252.08C701.11 277.18 687.31 303.08 667.78 326.01C657.19 338.89 637.93 359.34 626.86 372.01C596.15 407.28 528.3 453.88 481.16 469.75C454.994 480.917 426.924 486.947 398.48 487.51C330.07 500.51 256.65 484.78 248 479.31C239.35 473.84 221.37 428.12 223.29 380.5C224.06 361.5 219.92 334.01 224.59 312.5C227.74 276.33 239.85 236.34 263.06 201.44C289.91 158.4 440.6 19.7002 507.38 13.7802Z" fill="#F3F3F4"/>
</g>
<g style="mix-blend-mode:multiply" opacity="0.29">
<path d="M507.05 15.4001C533.45 9.09013 564.21 21.5901 589.15 41.8001C613.9 60.8601 646.67 97.3101 654.15 106.85C691.35 154.3 716.32 214.42 703.68 248.47C700.49 273.13 687.3 299 668 321.54C657.87 333.87 638.12 354.74 627.54 366.89C598.16 400.62 529.45 449.01 484.36 464.19C458.706 475.506 430.959 481.299 402.92 481.19C337.48 493.61 264.86 476.19 256.58 470.95C248.3 465.71 229.48 420.35 231.32 374.8C232.05 356.59 226.99 329.24 231.46 308.64C233.81 273.4 245.4 234.09 268.25 200.06C293.91 158.86 443.17 21.0601 507.05 15.4001Z" fill="#F1F2F2"/>
</g>
<g style="mix-blend-mode:multiply" opacity="0.32">
<path d="M506.72 17C532.6 10.3 563.07 22.23 587.56 42.2C611.19 60.4 644.42 97.2 651.56 106.26C687.07 151.55 714.31 212.35 702.25 244.84C699.88 269.07 687.25 294.84 668.16 317.06C658.49 328.83 638.26 350.13 628.16 361.73C600.16 393.92 530.54 444.11 487.51 458.59C462.362 470.049 434.924 475.598 407.3 474.81C344.83 486.67 273 467.51 265.1 462.53C257.2 457.55 237.52 412.53 239.28 369.05C239.98 351.66 233.99 324.4 238.28 304.74C239.85 270.42 250.91 231.79 273.41 198.63C297.9 159.32 445.75 22.42 506.72 17Z" fill="#F0F0F1"/>
</g>
<g style="mix-blend-mode:multiply" opacity="0.35">
<path d="M506.39 18.63C531.75 11.53 561.93 22.89 585.96 42.63C608.47 60 642.17 97 649 105.68C682.82 148.82 712.33 210.29 700.84 241.24C699.3 265.02 687.32 290.71 668.38 312.6C659.17 323.81 638.46 345.54 628.84 356.6C602.14 387.27 531.69 439.24 490.71 453.03C465.46 465.03 436.51 470.1 411.71 468.48C352.22 479.77 281.18 458.9 273.71 454.15C266.24 449.4 245.71 404.75 247.33 363.34C248 346.78 241.09 319.61 245.15 300.89C246.232 263.863 257.838 227.911 278.61 197.24C301.89 159.78 448.32 23.78 506.39 18.63Z" fill="#EEEFEF"/>
</g>
<g style="mix-blend-mode:multiply" opacity="0.39">
<path d="M506.06 20.2401C530.91 12.7501 560.78 23.5401 584.37 43.0401C605.75 59.5101 639.92 96.8601 646.37 105.1C678.5 146.1 710.28 208.22 699.37 237.62C698.66 260.97 687.27 286.62 668.52 308.13C659.78 318.78 638.59 340.94 629.46 351.43C604.08 380.56 532.78 434.32 493.84 447.43C469.1 459.6 440.39 464.43 416.1 462.1C359.58 472.83 289.33 450.24 282.19 445.73C275.05 441.22 253.67 396.92 255.26 357.59C255.89 341.85 248.06 314.77 251.92 296.99C252.196 260.85 263.263 225.617 283.7 195.81C305.89 160.24 450.9 25.1301 506.06 20.2401Z" fill="#EDEEEE"/>
</g>
<g style="mix-blend-mode:multiply" opacity="0.42">
<path d="M505.73 21.8603C530.06 13.9703 559.65 24.2003 582.73 43.4603C602.98 59.0603 637.63 96.7103 643.73 104.52C674.16 143.34 708.21 206.16 697.87 234.01C697.99 256.91 687.2 282.46 668.65 303.66C660.37 313.75 638.65 336.34 630.05 346.28C606.05 373.88 533.84 429.42 496.95 441.84C472.73 454.17 444.24 458.7 420.44 455.74C366.9 465.9 297.44 441.6 290.67 437.32C283.9 433.04 261.67 389.12 263.19 351.85C263.8 336.95 255.04 309.95 258.69 293.11C257.9 261.55 267.38 224.97 288.8 194.4C309.88 160.69 453.47 26.4903 505.73 21.8603Z" fill="#EBECED"/>
</g>
<g style="mix-blend-mode:multiply" opacity="0.45">
<path d="M505.41 23.4702C529.21 15.1902 558.5 24.8502 581.19 43.8702C600.31 58.6002 635.43 96.5602 641.19 103.94C670 140.6 706.27 204.09 696.51 230.4C697.45 252.86 687.26 278.34 668.91 299.2C661.09 308.72 638.91 331.74 630.77 341.13C608.06 367.19 535.03 424.52 500.19 436.25C476.48 448.73 448.19 453.01 424.92 449.38C374.35 459 305.69 433 299.29 428.92C292.89 424.84 269.84 381.31 271.29 346.12C271.86 332.04 262.17 305.12 265.63 289.22C264 258.58 273 222.69 294 193C313.88 161.15 456.05 27.8502 505.41 23.4702Z" fill="#EAEBEB"/>
</g>
<g style="mix-blend-mode:multiply" opacity="0.48">
<path d="M505.08 25.0902C528.36 16.4102 557.36 25.5002 579.59 44.2902C597.59 58.1502 633.18 96.4102 638.59 103.36C665.59 137.86 704.23 202.02 695.04 226.78C696.81 248.78 687.22 274.21 669.04 294.78C661.67 303.78 639.04 327.19 631.36 336.02C609.99 360.55 536.09 419.67 503.3 430.71C480.11 443.34 452.09 447.37 429.3 443.07C381.7 452.07 313.83 424.37 307.81 420.57C301.79 416.77 277.88 373.57 279.22 340.43C279.76 327.18 269.15 300.37 272.4 285.43C270.03 255.71 278.46 220.5 299.17 191.66C317.87 161.61 458.62 29.2102 505.08 25.0902Z" fill="#E8E9EA"/>
</g>
<g style="mix-blend-mode:multiply" opacity="0.52">
<path d="M504.75 26.7001C527.52 17.6401 556.22 26.1501 578 44.7001C594.88 57.7001 630.93 96.2701 636 102.77C661.37 135.12 702.23 199.96 693.61 223.17C696.2 244.75 687.21 270.09 669.26 290.26C662.35 298.66 639.26 322.54 632.04 330.82C612.04 353.82 537.24 414.73 506.5 425.07C483.82 437.85 456.03 441.63 433.7 436.66C389.08 445.13 322 415.66 316.36 412.11C310.72 408.56 286 365.7 287.25 334.64C287.75 322.22 276.25 295.5 279.25 281.46C276.09 252.66 283.99 218.13 304.34 190.16C321.87 162.07 461.2 30.5701 504.75 26.7001Z" fill="#E7E8E8"/>
</g>
<g style="mix-blend-mode:multiply" opacity="0.55">
<path d="M504.42 28.3202C526.67 18.8602 555.08 26.8102 576.42 45.1202C592.17 57.2502 628.69 96.1202 633.42 102.19C657.1 132.38 700.23 197.89 692.18 219.55C695.61 240.7 687.18 265.97 669.46 285.79C663.01 293.63 639.46 317.94 632.7 325.67C614 347.13 538.38 409.83 509.7 419.48C487.53 432.41 459.98 435.94 438.14 430.3C396.49 438.2 330.2 407.03 324.94 403.71C319.68 400.39 294.07 357.89 295.24 328.91C295.71 317.31 283.24 290.68 286.1 277.58C282.1 249.7 289.53 215.85 309.52 188.74C325.86 162.53 463.77 31.9202 504.42 28.3202Z" fill="#E5E6E7"/>
</g>
<g style="mix-blend-mode:multiply" opacity="0.58">
<path d="M504.09 29.93C525.82 20.08 553.94 27.46 574.81 45.53C589.44 56.8 626.43 95.97 630.81 101.61C652.81 129.61 698.2 195.82 690.73 215.94C694.98 236.64 687.19 261.84 669.63 281.32C663.63 288.6 639.63 313.32 633.33 320.52C616 340.45 539.52 404.93 512.88 413.9C491.22 426.97 463.88 430.25 442.54 423.9C403.87 431.24 338.38 398.35 333.54 395.27C328.7 392.19 302.2 350.05 303.28 323.13C303.72 312.37 290.34 285.82 292.99 273.66C288.25 246.66 295.1 213.53 314.73 187.29C329.86 163 466.35 33.28 504.09 29.93Z" fill="#E4E5E5"/>
</g>
<g style="mix-blend-mode:multiply" opacity="0.61">
<path d="M503.76 31.5502C525 21.3002 552.8 28.1102 573.22 46.0002C586.72 56.4002 624.22 95.8702 628.22 101.08C648.51 126.95 696.22 193.81 689.28 212.38C694.36 232.64 687.17 257.77 669.81 276.9C664.28 283.63 639.74 308.79 633.97 315.41C617.97 333.81 540.59 400.08 515.97 408.36C494.82 421.58 467.73 424.61 446.87 417.63C411.17 424.4 346.47 389.8 341.96 386.95C337.45 384.1 310.15 342.33 311.15 317.49C311.55 307.55 297.25 281.1 299.69 269.86C294.17 243.86 300.49 211.34 319.76 185.97C333.85 163.45 468.92 34.6402 503.76 31.5502Z" fill="#E2E3E4"/>
</g>
<g style="mix-blend-mode:multiply" opacity="0.65">
<path d="M503.44 33.1701C524.12 22.5201 551.66 28.7601 571.63 46.3601C584 55.9001 621.94 95.6701 625.63 100.44C644.23 124.17 694.17 191.69 687.85 208.71C693.75 228.54 687.16 253.6 669.99 272.38C664.93 278.55 639.91 304.14 634.62 310.21C619.93 327.07 541.71 395.13 519.17 402.72C498.54 416.09 471.68 418.86 451.31 411.22C418.58 417.43 354.67 381.11 350.53 378.5C346.39 375.89 318.25 334.5 319.17 311.7C319.54 302.59 304.32 276.23 306.55 265.93C300.24 240.82 306.04 209.01 324.96 184.51C337.85 163.91 471.5 36.0001 503.44 33.1701Z" fill="#E1E2E3"/>
</g>
<g style="mix-blend-mode:multiply" opacity="0.68">
<path d="M503.11 34.7801C523.28 23.7801 550.52 29.4201 570.03 46.7801C581.28 55.4401 619.69 95.5201 623.09 99.8601C640 121.43 692.21 189.62 686.46 205.1C693.19 224.48 687.2 249.47 670.23 267.91C665.63 273.52 640.13 299.53 635.32 305.06C621.96 320.39 542.88 390.24 522.39 397.13C502.27 410.65 475.64 413.13 455.76 404.86C426.01 410.5 362.89 372.47 359.13 370.09C355.37 367.71 326.38 326.67 327.22 306C327.55 297.72 311.41 271.45 313.44 262.09C306.34 237.89 311.61 206.77 330.17 183.09C341.84 164.37 474.07 37.3601 503.11 34.7801Z" fill="#DFE1E1"/>
</g>
<g style="mix-blend-mode:multiply" opacity="0.71">
<path d="M502.78 36.4001C522.43 24.9601 549.38 30.0701 568.44 47.1901C578.57 54.9901 617.44 95.3701 620.5 99.2801C635.72 118.69 690.2 187.56 685.03 201.48C692.59 220.48 687.19 245.35 670.42 263.48C666.28 268.48 640.3 294.96 635.97 299.93C623.97 313.73 543.97 385.37 525.56 391.58C505.95 405.24 479.56 407.51 460.17 398.53C433.4 403.61 371.07 363.86 367.68 361.72C364.29 359.58 334.46 318.89 335.21 300.26C335.51 292.81 318.44 266.62 320.27 258.2C312.39 234.92 317.13 204.49 335.33 181.71C345.84 164.83 476.65 38.7101 502.78 36.4001Z" fill="#DEDFE0"/>
</g>
<g style="mix-blend-mode:multiply" opacity="0.74">
<path d="M502.45 38.0001C521.58 26.1701 548.24 30.7101 566.85 47.6001C575.85 54.5301 615.19 95.2101 617.91 98.6901C631.44 115.94 688.19 185.48 683.6 197.86C691.98 216.36 687.18 241.22 670.6 258.97C666.92 263.45 640.46 290.32 636.6 294.74C625.94 307 545.13 380.44 528.73 386C509.64 399.81 483.47 401.83 464.57 392.18C440.78 396.69 379.24 355.23 376.23 353.33C373.22 351.43 342.54 311.1 343.23 294.53C343.49 287.91 325.5 261.81 327.13 254.33C318.45 231.97 322.67 202.22 340.51 180.33C349.83 165.29 479.22 40.0701 502.45 38.0001Z" fill="#DCDEDE"/>
</g>
<g style="mix-blend-mode:multiply" opacity="0.77">
<path d="M502.12 39.6301C520.73 27.4001 547.12 31.3701 565.26 48.0201C573.13 54.0901 612.94 95.0801 615.32 98.1101C627.16 113.21 686.18 183.42 682.16 194.25C691.37 212.32 687.16 237.1 670.8 254.51C667.58 258.43 640.64 285.73 637.27 289.6C627.92 300.33 546.27 375.54 531.9 380.37C513.32 394.37 487.39 396.1 468.98 385.78C448.16 389.78 387.41 346.55 384.78 344.88C382.15 343.21 350.62 303.25 351.2 288.76C351.44 282.96 332.52 256.95 333.94 250.4C324.48 228.97 328.17 199.9 345.65 178.85C353.83 165.75 481.8 41.4301 502.12 39.6301Z" fill="#DBDCDD"/>
</g>
<g style="mix-blend-mode:multiply" opacity="0.81">
<path d="M501.79 41.2403C519.89 28.6203 545.96 32.0303 563.66 48.4403C570.41 53.6403 610.66 94.9303 612.73 97.5303C622.88 110.47 684.17 181.36 680.73 190.64C690.73 208.27 687.16 232.98 670.99 250.04C668.22 253.4 640.81 281.13 637.92 284.45C629.92 293.64 547.37 370.64 535.08 374.78C517.01 388.89 491.31 390.41 473.38 379.42C455.54 382.81 395.58 337.9 393.33 336.48C391.08 335.06 358.69 295.48 359.2 283.02C359.4 278.02 339.56 252.14 340.78 246.52C330.53 226.01 333.69 197.62 350.78 177.44C357.82 166.21 484.37 42.7903 501.79 41.2403Z" fill="#D9DBDC"/>
</g>
<g style="mix-blend-mode:multiply" opacity="0.84">
<path d="M501.46 42.8603C519.04 29.8603 544.81 32.6803 562.07 48.8603C567.69 53.2003 608.45 94.7903 610.15 96.9603C618.6 107.74 682.15 179.3 679.29 187.04C690.15 204.22 687.16 228.87 671.18 245.58C668.87 248.38 640.98 276.58 638.57 279.3C631.89 286.97 548.49 365.76 538.25 369.2C520.69 383.47 495.25 384.73 477.79 373.07C462.92 375.89 403.79 329.27 401.87 328.07C399.95 326.87 366.77 287.63 367.19 277.27C367.36 273.13 346.59 247.27 347.61 242.63C336.61 223.04 339.21 195.33 355.98 176.02C361.82 166.66 487 44.1503 501.46 42.8603Z" fill="#D8D9DA"/>
</g>
<g style="mix-blend-mode:multiply" opacity="0.87">
<path d="M501.13 44.4701C518.19 31.0601 543.67 33.3301 560.48 49.2701C564.98 52.7401 606.2 94.6301 607.56 96.3701C614.32 104.99 680.15 177.22 677.86 183.37C689.54 200.12 687.15 224.69 671.36 241.06C669.52 243.3 641.14 271.89 639.22 274.06C633.88 280.19 549.62 360.77 541.42 363.53C524.42 377.94 499.14 378.94 482.2 366.62C470.3 368.87 411.93 320.54 410.42 319.62C408.91 318.7 374.85 279.78 375.18 271.5C375.32 268.19 353.63 242.45 354.44 238.71C342.62 220.04 344.73 193.01 361.14 174.56C365.81 167.12 489.52 45.5001 501.13 44.4701Z" fill="#D6D8D9"/>
</g>
<g style="mix-blend-mode:multiply" opacity="0.9">
<path d="M500.81 46.09C517.35 32.28 542.53 33.98 558.88 49.68C562.26 52.28 603.95 94.48 604.97 95.78C610.04 102.25 678.15 175.16 676.42 179.78C688.94 196.09 687.14 220.59 671.55 236.61C670.17 238.3 641.31 267.31 639.87 268.97C635.87 273.57 550.74 355.97 544.59 357.97C528.06 372.53 503.05 373.28 486.59 360.29C477.68 362 420.1 312 419 311.27C417.9 310.54 383 272.02 383.21 265.81C383.31 263.33 360.7 237.68 361.31 234.87C348.7 217.13 350.31 190.78 366.31 173.2C369.8 167.58 492.1 46.86 500.81 46.09Z" fill="#D5D6D7"/>
</g>
<g style="mix-blend-mode:multiply" opacity="0.94">
<path d="M500.48 47.7103C516.48 33.5003 541.39 34.6403 557.29 50.1003C559.54 51.8303 601.7 94.3303 602.38 95.2003C605.76 99.5103 676.14 173.09 674.99 176.2C688.33 192.07 687.13 216.51 671.74 232.2C670.82 233.32 641.48 262.76 640.52 263.86C637.85 266.93 551.86 351.08 547.76 352.46C531.74 367.14 507 367.64 491 354C485.05 355.12 428.26 303.36 427.51 302.88C426.76 302.4 391 264.22 391.17 260.08C391.24 258.42 367.71 232.87 368.11 230.99C354.71 214.16 355.77 188.5 371.46 171.79C373.8 168 494.67 48.2203 500.48 47.7103Z" fill="#D3D5D6"/>
</g>
<g style="mix-blend-mode:multiply" opacity="0.97">
<path d="M500.15 49.3201C515.65 34.7201 540.25 35.3201 555.7 50.5201C556.82 51.3801 599.45 94.1801 599.79 94.6201C601.48 96.7701 674.13 171.02 673.55 172.57C687.72 188 687.12 212.36 671.93 227.7C671.47 228.26 641.65 258.13 641.17 258.7C639.84 260.23 552.98 346.17 550.93 346.86C535.43 361.72 510.93 361.97 495.41 347.64C492.41 348.2 436.41 294.72 436.07 294.48C435.73 294.24 399.07 256.48 399.17 254.36C399.17 253.53 374.75 228.07 374.95 227.13C360.76 211.22 361.29 186.24 376.63 170.39C377.79 168.5 497.24 49.5801 500.15 49.3201Z" fill="#D2D3D4"/>
</g>
<g style="mix-blend-mode:multiply">
<path d="M672.12 169C675.684 172.563 678.511 176.793 680.44 181.449C682.369 186.105 683.362 191.095 683.362 196.135C683.362 201.175 682.369 206.165 680.44 210.821C678.511 215.477 675.684 219.707 672.12 223.27L554.12 341.27C550.557 344.837 546.327 347.666 541.67 349.597C537.013 351.527 532.021 352.521 526.98 352.521C521.939 352.521 516.947 351.527 512.29 349.597C507.633 347.666 503.403 344.837 499.84 341.27L381.84 223.27C374.65 216.07 370.611 206.311 370.611 196.135C370.611 185.96 374.65 176.2 381.84 169L499.84 51C503.403 47.4346 507.634 44.6062 512.291 42.6764C516.948 40.7467 521.939 39.7534 526.98 39.7534C532.021 39.7534 537.012 40.7467 541.669 42.6764C546.326 44.6062 550.557 47.4346 554.12 51L672.12 169Z" fill="#D0D2D3"/>
</g>
</g>
<path d="M551.3 355.13C545.714 360.711 538.141 363.846 530.245 363.846C522.349 363.846 514.776 360.711 509.19 355.13L363.73 209.66C360.963 206.896 358.768 203.614 357.27 200.001C355.773 196.389 355.002 192.516 355.002 188.605C355.002 184.694 355.773 180.822 357.27 177.209C358.768 173.596 360.963 170.314 363.73 167.55L509.19 22.0803C511.955 19.3146 515.237 17.1206 518.85 15.6238C522.462 14.1269 526.334 13.3564 530.245 13.3564C534.155 13.3564 538.028 14.1269 541.64 15.6238C545.253 17.1206 548.535 19.3146 551.3 22.0803L696.78 167.55C699.546 170.315 701.74 173.597 703.237 177.21C704.733 180.823 705.504 184.695 705.504 188.605C705.504 192.516 704.733 196.388 703.237 200.001C701.74 203.613 699.546 206.896 696.78 209.66L551.3 355.13Z" fill="white"/>
<path opacity="0.2" d="M551.3 353.07C545.714 358.651 538.141 361.786 530.245 361.786C522.349 361.786 514.776 358.651 509.19 353.07L363.73 207.6C360.963 204.835 358.768 201.552 357.27 197.939C355.772 194.325 355.001 190.452 355.001 186.54C355.001 182.629 355.772 178.755 357.27 175.142C358.768 171.528 360.963 168.245 363.73 165.48L509.19 20.0002C511.955 17.2345 515.237 15.0405 518.85 13.5437C522.462 12.0468 526.334 11.2764 530.245 11.2764C534.155 11.2764 538.028 12.0468 541.64 13.5437C545.253 15.0405 548.535 17.2345 551.3 20.0002L696.78 165.48C702.364 171.067 705.501 178.642 705.501 186.54C705.501 194.439 702.364 202.014 696.78 207.6L551.3 353.07Z" fill="url(#paint3_linear)"/>
<defs>
<linearGradient id="paint0_linear" x1="410.84" y1="116.38" x2="205.75" y2="364.73" gradientUnits="userSpaceOnUse">
<stop stop-color="#EEF2F5"/>
<stop offset="0.31" stop-color="#EBEFF2"/>
<stop offset="0.58" stop-color="#E0E5E7"/>
<stop offset="0.82" stop-color="#CFD5D6"/>
<stop offset="1" stop-color="#BDC5C4"/>
</linearGradient>
<linearGradient id="paint1_linear" x1="127863" y1="85312.7" x2="88633.1" y2="133460" gradientUnits="userSpaceOnUse">
<stop stop-color="#EEF2F5"/>
<stop offset="0.31" stop-color="#EBEFF2"/>
<stop offset="0.58" stop-color="#E0E5E7"/>
<stop offset="0.82" stop-color="#CFD5D6"/>
<stop offset="1" stop-color="#BDC5C4"/>
</linearGradient>
<linearGradient id="paint2_linear" x1="138215" y1="60177.3" x2="113343" y2="87503.4" gradientUnits="userSpaceOnUse">
<stop stop-color="#EEF2F5"/>
<stop offset="0.31" stop-color="#EBEFF2"/>
<stop offset="1" stop-color="#E0E5E7"/>
</linearGradient>
<linearGradient id="paint3_linear" x1="225747" y1="25959.5" x2="124849" y2="142683" gradientUnits="userSpaceOnUse">
<stop stop-color="#EEF2F5"/>
<stop offset="0.31" stop-color="#EBEFF2"/>
<stop offset="0.58" stop-color="#E0E5E7"/>
<stop offset="0.82" stop-color="#CFD5D6"/>
<stop offset="1" stop-color="#BDC5C4"/>
</linearGradient>
</defs>
</svg>
