<svg width="25" height="25" viewBox="0 0 25 25" fill="none" xmlns="http://www.w3.org/2000/svg">
<path d="M5.22225 1.21959L5.22218 1.21967L1.82972 4.60962C1.82971 4.60963 1.82969 4.60965 1.82967 4.60967C1.44997 4.98922 1.2388 5.50551 1.24355 6.04236C1.35979 10.7135 3.22587 15.1706 6.47224 18.531C9.83525 21.7757 14.2932 23.6407 18.965 23.7572L18.9926 23.7572C18.9929 23.7572 18.9931 23.7572 18.9934 23.7572C19.5176 23.7558 20.0196 23.5456 20.3884 23.173L20.3903 23.1711L23.7826 19.78C23.7827 19.78 23.7827 19.7799 23.7827 19.7799C23.7827 19.7799 23.7827 19.7799 23.7828 19.7799C24.0754 19.487 24.0754 19.0124 23.7827 18.7195L23.7826 18.7195M5.22225 1.21959L24.1363 18.366L23.7826 18.7195M5.22225 1.21959C5.51511 0.926821 5.98982 0.926803 6.2827 1.21954L5.22225 1.21959ZM23.7826 18.7195L18.7828 13.7196C18.7827 13.7196 18.7827 13.7196 18.7827 13.7195C18.4898 13.4268 18.0151 13.4268 17.7223 13.7196L17.7216 13.7202L15.7216 15.7127L15.5175 15.9161L15.2392 15.8414C13.7844 15.4511 12.4384 14.7327 11.3046 13.7411L11.2792 13.7189L11.257 13.6935C10.2659 12.5577 9.548 11.2101 9.15825 9.75401L9.08356 9.47494L9.28803 9.27085L11.2826 7.27998C11.2827 7.27995 11.2827 7.27991 11.2827 7.27988C11.5754 6.98701 11.5754 6.51238 11.2827 6.21954L11.2826 6.21948M23.7826 18.7195L11.6363 5.86598L11.2826 6.21948M11.2826 6.21948L6.28275 1.21959L11.2826 6.21948ZM6.10342 3.16479L5.957 3.01848H5.75H5.74375H5.53635L5.38984 3.16528L2.88985 5.67028L2.73865 5.82179L2.7439 6.03577C2.84891 10.3094 4.55489 14.3877 7.52403 17.4633L7.53018 17.4696L7.53655 17.4758C10.6122 20.4438 14.6897 22.1496 18.9626 22.2558L19.1768 22.2612L19.3284 22.1097L21.8371 19.6035L22.1915 19.2494L21.8368 18.8957L18.5968 15.6645L18.2434 15.312L17.8903 15.6648L16.2741 17.2798L16.272 17.2819C16.1345 17.421 15.9471 17.4994 15.7516 17.4997C15.6997 17.4997 15.6479 17.4943 15.5971 17.4836C13.6078 17.0431 11.7599 16.1135 10.2207 14.7791C8.8864 13.24 7.95684 11.3924 7.51635 9.40342C7.46517 9.15571 7.54229 8.89882 7.72159 8.72026L7.72244 8.7194L9.33744 7.10315L9.69086 6.74946L9.33717 6.39604L6.10342 3.16479Z" fill="white" stroke="white"/>
</svg>
