<svg width="130" height="130" viewBox="0 0 130 130" fill="none" xmlns="http://www.w3.org/2000/svg">
<g clip-path="url(#clip0)">
<path d="M64.9999 20.9819C40.7282 20.9819 20.9819 40.7282 20.9819 64.9999C20.9819 89.2715 40.7282 109.018 64.9999 109.018C89.2715 109.018 109.018 89.2715 109.018 64.9999C109.018 40.7282 89.2715 20.9819 64.9999 20.9819ZM64.9999 103.94C43.5283 103.94 26.0601 86.4715 26.0601 64.9999C26.0601 43.5283 43.5283 26.0601 64.9999 26.0601C86.4715 26.0601 103.94 43.5283 103.94 64.9999C103.94 86.4715 86.4712 103.94 64.9999 103.94Z" fill="#787FC1"/>
<path d="M64.9996 82.1731L50.4859 87.334L50.9094 71.9358L41.5161 59.7275L56.2914 55.372L64.9996 42.6655L73.7079 55.372L88.4832 59.7275L79.0899 71.9358L79.5134 87.334L64.9996 82.1731Z" fill="#F2C786"/>
<path d="M110.962 19.0381C98.685 6.76102 82.3621 0 65 0C47.6379 0 31.315 6.76102 19.0381 19.0381C6.76102 31.315 0 47.6379 0 65C0 82.3621 6.76102 98.685 19.0381 110.962C31.315 123.239 47.6379 130 65 130C82.3621 130 98.685 123.239 110.962 110.962C123.239 98.685 130 82.3621 130 65C130 47.6379 123.239 31.315 110.962 19.0381ZM65 124.922C31.9589 124.922 5.07813 98.0411 5.07813 65C5.07813 31.9589 31.9589 5.07812 65 5.07812C98.0411 5.07812 124.922 31.9589 124.922 65C124.922 98.0411 98.0411 124.922 65 124.922Z" fill="#787FC1"/>
<circle cx="119.082" cy="119.844" r="48.75" fill="white"/>
</g>
<defs>
<clipPath id="clip0">
<rect width="130" height="130" fill="white"/>
</clipPath>
</defs>
</svg>
