<svg width="130" height="130" viewBox="0 0 130 130" fill="none" xmlns="http://www.w3.org/2000/svg">
<g clip-path="url(#clip0)">
<path d="M64.9985 103.706C86.4526 103.706 103.845 86.345 103.845 64.9292C103.845 43.5133 86.4526 26.1523 64.9985 26.1523C43.5443 26.1523 26.1523 43.5133 26.1523 64.9292C26.1523 86.345 43.5443 103.706 64.9985 103.706Z" fill="#D2F286"/>
<path d="M64.9985 39.0218C63.5962 39.0218 62.4595 37.8848 62.4595 36.4828V35.6167C62.4595 34.2144 63.5962 33.0776 64.9985 33.0776C66.4009 33.0776 67.5376 34.2144 67.5376 35.6167V36.4828C67.5376 37.8851 66.4009 39.0218 64.9985 39.0218Z" fill="#787FC1"/>
<path d="M64.9985 96.7811C63.5962 96.7811 62.4595 95.6441 62.4595 94.2421V93.376C62.4595 91.9739 63.5962 90.8369 64.9985 90.8369C66.4009 90.8369 67.5376 91.9739 67.5376 93.376V94.2421C67.5376 95.6441 66.4009 96.7811 64.9985 96.7811Z" fill="#787FC1"/>
<path d="M94.3107 67.4683H93.4443C92.042 67.4683 90.9053 66.3313 90.9053 64.9292C90.9053 63.5271 92.042 62.3901 93.4443 62.3901H94.3107C95.713 62.3901 96.8497 63.5271 96.8497 64.9292C96.8497 66.3315 95.713 67.4683 94.3107 67.4683Z" fill="#787FC1"/>
<path d="M36.5519 67.4683H35.6855C34.2832 67.4683 33.1465 66.3313 33.1465 64.9292C33.1465 63.5271 34.2832 62.3901 35.6855 62.3901H36.5519C37.9542 62.3901 39.0909 63.5271 39.0909 64.9292C39.0909 66.3315 37.9542 67.4683 36.5519 67.4683Z" fill="#787FC1"/>
<path d="M85.1132 47.3536C84.4635 47.3536 83.8135 47.1056 83.3178 46.6099C82.3263 45.6184 82.3263 44.0107 83.3178 43.0189L83.9303 42.4065C84.9218 41.4153 86.5295 41.4153 87.5213 42.4065C88.5128 43.398 88.5128 45.0058 87.5213 45.9975L86.9088 46.6099C86.4127 47.1056 85.763 47.3536 85.1132 47.3536Z" fill="#787FC1"/>
<path d="M44.2714 88.1949C43.6217 88.1949 42.9717 87.9469 42.4761 87.4512C41.4845 86.4597 41.4845 84.852 42.4761 83.8603L43.0885 83.2478C44.08 82.2566 45.6877 82.2566 46.6795 83.2478C47.671 84.2393 47.671 85.8471 46.6795 86.8388L46.067 87.4512C45.5712 87.9471 44.9212 88.1949 44.2714 88.1949Z" fill="#787FC1"/>
<path d="M44.8838 47.3536C44.2341 47.3536 43.5841 47.1056 43.0885 46.6099L42.4761 45.9975C41.4845 45.006 41.4845 43.3983 42.4761 42.4065C43.4676 41.4153 45.0753 41.4153 46.067 42.4065L46.6795 43.0189C47.671 44.0105 47.671 45.6182 46.6795 46.6099C46.1836 47.1056 45.5336 47.3536 44.8838 47.3536Z" fill="#787FC1"/>
<path d="M80.1843 62.0097H73.7661C72.9188 59.2164 70.7113 57.009 67.9178 56.1617V48.2124C67.9178 46.8101 66.7811 45.6733 65.3788 45.6733C63.9764 45.6733 62.8397 46.8101 62.8397 48.2124V56.1617C59.2424 57.2527 56.6162 60.6 56.6162 64.5487C56.6162 69.3803 60.5472 73.3113 65.3788 73.3113C69.3278 73.3113 72.675 70.6854 73.7661 67.0878H80.1843C81.5866 67.0878 82.7234 65.9508 82.7234 64.5487C82.7234 63.1467 81.5866 62.0097 80.1843 62.0097ZM65.3788 68.2332C63.3473 68.2332 61.6943 66.5802 61.6943 64.5487C61.6943 62.5172 63.347 60.8646 65.3788 60.8646C67.4103 60.8646 69.0632 62.5172 69.0632 64.5487C69.063 66.5802 67.4103 68.2332 65.3788 68.2332Z" fill="#787FC1"/>
<path d="M110.962 19.0381C98.685 6.76102 82.3621 0 65 0C47.6379 0 31.315 6.76102 19.0381 19.0381C6.76102 31.315 0 47.6379 0 65C0 82.3621 6.76102 98.685 19.0381 110.962C31.315 123.239 47.6379 130 65 130C82.3621 130 98.685 123.239 110.962 110.962C123.239 98.685 130 82.3621 130 65C130 47.6379 123.239 31.315 110.962 19.0381ZM65 124.922C31.9589 124.922 5.07813 98.0411 5.07813 65C5.07813 31.9589 31.9589 5.07812 65 5.07812C98.0411 5.07812 124.922 31.9589 124.922 65C124.922 98.0411 98.0411 124.922 65 124.922Z" fill="#787FC1"/>
<circle cx="119.082" cy="119.844" r="48.75" fill="white"/>
</g>
<defs>
<clipPath id="clip0">
<rect width="130" height="130" fill="white"/>
</clipPath>
</defs>
</svg>
