<svg width="166" height="166" viewBox="0 0 166 166" fill="none" xmlns="http://www.w3.org/2000/svg">
<g filter="url(#filter0_d)">
<circle cx="83" cy="76" r="60" fill="white"/>
</g>
<g clip-path="url(#clip0)">
<path d="M112.987 27.6421C112.986 24.3691 110.322 21.7052 107.048 21.7039L28.1234 21.696H28.1207C26.5355 21.696 25.0453 22.3132 23.9246 23.4339C22.8033 24.5552 22.1861 26.0462 22.1867 27.6324L22.1877 31.031L18.9367 31.0306H18.934C17.3488 31.0306 15.8584 31.6478 14.7379 32.7685C13.6166 33.8902 12.9994 35.3812 13 36.9673L13.0129 84.3583C13.0141 87.6314 15.6779 90.2953 18.9518 90.2966L97.8766 90.3042H97.8793C99.4645 90.3042 100.955 89.6871 102.075 88.5664C103.197 87.4451 103.814 85.9541 103.813 84.3679L103.812 80.9693L107.063 80.9695H107.066C108.651 80.9695 110.142 80.3523 111.262 79.2316C112.383 78.1103 113.001 76.6193 113 75.0332L112.987 27.6421ZM99.3131 85.8042C98.9301 86.1872 98.4209 86.398 97.8791 86.398C97.8785 86.3978 97.8779 86.3978 97.8775 86.398L18.9527 86.3904C17.8318 86.3898 16.9195 85.4777 16.9191 84.357L16.9063 36.966C16.9061 36.4238 17.117 35.914 17.5 35.5308C17.883 35.1478 18.3922 34.9371 18.9348 34.9371H18.9357L97.8604 34.9447C98.9812 34.9453 99.8936 35.8576 99.8939 36.9781L99.9068 84.3691C99.907 84.9113 99.6963 85.421 99.3131 85.8042ZM108.5 76.4695C108.117 76.8525 107.608 77.0632 107.065 77.0632H107.064L103.811 77.063L103.8 36.9769C103.799 33.7039 101.135 31.0398 97.8613 31.0386L26.0939 31.0316L26.093 27.6312C26.0928 27.089 26.3037 26.5792 26.6867 26.196C27.0697 25.813 27.5789 25.6023 28.1215 25.6023H28.1223L107.047 25.6099C108.168 25.6105 109.08 26.5226 109.081 27.6433L109.094 75.0343C109.094 75.5765 108.883 76.0863 108.5 76.4695Z" fill="#414896"/>
<path d="M88.242 79.6026C88.2411 76.9122 90.4211 74.7321 93.1114 74.7333L93.1061 46.6061C90.4157 46.6052 88.2338 44.4233 88.2328 41.7329H28.5711C28.5721 44.4233 26.392 46.6034 23.7018 46.6022L23.7071 74.7294C26.3975 74.7304 28.5793 76.9122 28.5803 79.6026H88.242Z" fill="#D2F286"/>
<path d="M60.9042 59.0734C60.6198 58.9729 60.3485 58.8762 60.0903 58.7832V53.0609C60.7225 53.2781 61.1626 53.6109 61.3858 53.9291C62.0055 54.8121 63.2235 55.0258 64.1065 54.4059C64.9895 53.7863 65.203 52.5682 64.5833 51.6852C63.7102 50.441 62.1385 49.399 60.0903 49.0432V48.7412C60.0903 47.6625 59.2159 46.7881 58.1372 46.7881C57.0585 46.7881 56.1841 47.6625 56.1841 48.7412V49.1883C55.9274 49.2473 55.6673 49.316 55.4034 49.3955C53.0438 50.1064 51.2628 52.3971 51.0723 54.966C50.8841 57.5061 52.2348 59.7125 54.6858 60.8684C55.0178 61.0248 55.5317 61.2391 56.1841 61.4945V68.3922C55.3053 68.1102 54.5067 67.6574 53.9798 67.0033C53.303 66.1635 52.0733 66.0309 51.2335 66.7074C50.3934 67.3842 50.261 68.6137 50.9376 69.4539C52.2815 71.1223 54.2542 72.0256 56.1839 72.4195V72.5945C56.1839 73.673 57.0583 74.5476 58.137 74.5476C59.2157 74.5476 60.0901 73.673 60.0901 72.5945V72.5672C64.1682 72.0148 65.9528 69.3365 66.2567 66.9435C66.6844 63.5748 64.4833 60.3387 60.9042 59.0734ZM54.9678 55.2551C55.0288 54.4332 55.5284 53.6482 56.1839 53.2836V57.251C55.313 56.7873 54.904 56.1166 54.9678 55.2551ZM62.3817 66.4512C62.2452 67.5268 61.4243 68.2838 60.0903 68.5984V62.9553C61.8606 63.7793 62.5276 65.301 62.3817 66.4512Z" fill="#414896"/>
<path d="M82.4786 58.8364H76.0956C75.0169 58.8364 74.1425 59.711 74.1425 60.7896C74.1425 61.8681 75.0169 62.7427 76.0956 62.7427H82.4786C83.5573 62.7427 84.4317 61.8681 84.4317 60.7896C84.4317 59.7108 83.5573 58.8364 82.4786 58.8364Z" fill="#414896"/>
<path d="M40.9892 58.8364H34.6062C33.5275 58.8364 32.6531 59.711 32.6531 60.7896C32.6531 61.8681 33.5275 62.7427 34.6062 62.7427H40.9892C42.0679 62.7427 42.9423 61.8681 42.9423 60.7896C42.9423 59.7108 42.0679 58.8364 40.9892 58.8364Z" fill="#414896"/>
</g>
<defs>
<filter id="filter0_d" x="0" y="0" width="166" height="166" filterUnits="userSpaceOnUse" color-interpolation-filters="sRGB">
<feFlood flood-opacity="0" result="BackgroundImageFix"/>
<feColorMatrix in="SourceAlpha" type="matrix" values="0 0 0 0 0 0 0 0 0 0 0 0 0 0 0 0 0 0 127 0"/>
<feMorphology radius="3" operator="dilate" in="SourceAlpha" result="effect1_dropShadow"/>
<feOffset dy="7"/>
<feGaussianBlur stdDeviation="10"/>
<feColorMatrix type="matrix" values="0 0 0 0 0.729531 0 0 0 0 0.744069 0 0 0 0 0.845833 0 0 0 0.23 0"/>
<feBlend mode="normal" in2="BackgroundImageFix" result="effect1_dropShadow"/>
<feBlend mode="normal" in="SourceGraphic" in2="effect1_dropShadow" result="shape"/>
</filter>
<clipPath id="clip0">
<rect width="100" height="100" fill="white" transform="translate(13 6)"/>
</clipPath>
</defs>
</svg>
