<svg width="166" height="166" viewBox="0 0 166 166" fill="none" xmlns="http://www.w3.org/2000/svg">
<g filter="url(#filter0_d)">
<circle cx="83" cy="76" r="60" fill="white"/>
</g>
<path d="M55.9958 14.9707V37.5658H76.5058V60.9012H91.7845L103.747 68.0865L104.42 60.9012H113V14.9707H55.9958Z" fill="#F2C786"/>
<path d="M76.5057 35.6128H14.9531C13.8744 35.6128 13 36.4874 13 37.5659V87.1612C13 88.2397 13.8744 89.1143 14.9531 89.1143H24.5096L24.949 95.2161C24.9998 95.9202 25.4264 96.5419 26.0648 96.8427C26.3297 96.9675 26.6139 97.0288 26.8969 97.0288C27.2961 97.0288 27.6932 96.9063 28.0295 96.6669L38.6412 89.1142H76.5057C77.5842 89.1142 78.4588 88.2395 78.4588 87.161V37.5659C78.4588 36.4874 77.5844 35.6128 76.5057 35.6128ZM74.5525 85.2081H38.0172C37.6111 85.2081 37.2154 85.3345 36.8846 85.5698L28.5955 91.4694L28.275 87.0208C28.2014 85.9993 27.3512 85.2081 26.327 85.2081H16.9062V39.519H74.5525V85.2081Z" fill="#414896"/>
<path d="M40.3245 75.4174C40.5714 75.521 40.8275 75.5702 41.0794 75.5702C41.8425 75.5702 42.5675 75.12 42.8812 74.3723L52.4898 51.4768C52.9072 50.4821 52.4394 49.3374 51.4447 48.92C50.4501 48.5026 49.3054 48.9706 48.888 49.9651L39.2794 72.8606C38.862 73.8553 39.33 75.0001 40.3245 75.4174Z" fill="#414896"/>
<path d="M38.3375 61.4743C41.7555 61.4743 44.5363 58.3851 44.5363 54.5876C44.5363 50.7901 41.7557 47.7007 38.3375 47.7007C34.9193 47.7007 32.1387 50.7901 32.1387 54.5876C32.1387 58.3851 34.9195 61.4743 38.3375 61.4743ZM38.3375 51.6069C39.5801 51.6069 40.6301 52.9718 40.6301 54.5876C40.6301 56.203 39.5803 57.5681 38.3375 57.5681C37.0949 57.5681 36.0449 56.2032 36.0449 54.5876C36.0449 52.9718 37.0949 51.6069 38.3375 51.6069Z" fill="#414896"/>
<path d="M46.9228 70.2416C46.9228 74.0389 49.7035 77.1286 53.1216 77.1286C56.5396 77.1286 59.3204 74.0391 59.3204 70.2416C59.3204 66.4444 56.5398 63.3547 53.1216 63.3547C49.7035 63.3547 46.9228 66.4444 46.9228 70.2416ZM53.1216 67.261C54.3642 67.261 55.4142 68.6258 55.4142 70.2416C55.4142 71.8573 54.3644 73.2223 53.1216 73.2223C51.879 73.2223 50.829 71.8575 50.829 70.2416C50.829 68.626 51.8788 67.261 53.1216 67.261Z" fill="#414896"/>
<defs>
<filter id="filter0_d" x="0" y="0" width="166" height="166" filterUnits="userSpaceOnUse" color-interpolation-filters="sRGB">
<feFlood flood-opacity="0" result="BackgroundImageFix"/>
<feColorMatrix in="SourceAlpha" type="matrix" values="0 0 0 0 0 0 0 0 0 0 0 0 0 0 0 0 0 0 127 0"/>
<feMorphology radius="3" operator="dilate" in="SourceAlpha" result="effect1_dropShadow"/>
<feOffset dy="7"/>
<feGaussianBlur stdDeviation="10"/>
<feColorMatrix type="matrix" values="0 0 0 0 0.729531 0 0 0 0 0.744069 0 0 0 0 0.845833 0 0 0 0.23 0"/>
<feBlend mode="normal" in2="BackgroundImageFix" result="effect1_dropShadow"/>
<feBlend mode="normal" in="SourceGraphic" in2="effect1_dropShadow" result="shape"/>
</filter>
</defs>
</svg>
