<svg width="166" height="166" viewBox="0 0 166 166" fill="none" xmlns="http://www.w3.org/2000/svg">
<g filter="url(#filter0_d)">
<circle cx="83" cy="76" r="60" fill="white"/>
</g>
<g clip-path="url(#clip0)">
<path d="M52.8703 45.1938H72.6342C73.7127 45.1938 74.5873 44.3194 74.5873 43.2407C74.5873 42.162 73.7127 41.2876 72.6342 41.2876H52.8703C51.7916 41.2876 50.9172 42.162 50.9172 43.2407C50.9172 44.3194 51.7916 45.1938 52.8703 45.1938Z" fill="#414896"/>
<path d="M73.7504 59.8396H52.8703C51.7916 59.8396 50.9172 60.714 50.9172 61.7927C50.9172 62.8714 51.7916 63.7458 52.8703 63.7458H73.7504C74.8289 63.7458 75.7035 62.8714 75.7035 61.7927C75.7035 60.714 74.8289 59.8396 73.7504 59.8396Z" fill="#414896"/>
<path d="M73.7504 78.3911H52.8703C51.7916 78.3911 50.9172 79.2655 50.9172 80.3442C50.9172 81.4229 51.7916 82.2974 52.8703 82.2974H73.7504C74.8289 82.2974 75.7035 81.4229 75.7035 80.3442C75.7035 79.2655 74.8289 78.3911 73.7504 78.3911Z" fill="#414896"/>
<path d="M89.9648 88.9865C89.3059 88.9865 88.6543 88.9543 88.0117 88.8914V99.9797C88.0117 101.145 87.0635 102.094 85.8979 102.094H22.1453C20.9797 102.094 20.0312 101.146 20.0312 99.9799V22.0262C20.0312 20.8605 20.9797 19.9123 22.1451 19.9123H34.3092V24.742H26.8223C25.7436 24.742 24.8691 25.6164 24.8691 26.6951V95.3109C24.8691 96.3896 25.7436 97.2641 26.8223 97.2641H81.2207C82.2992 97.2641 83.1738 96.3896 83.1738 95.3109V87.7936C81.7943 87.291 80.4857 86.6398 79.2676 85.8594V93.3578H28.7754V28.6482H79.2676V56.0432C80.4857 55.2625 81.7943 54.6113 83.1738 54.109V26.6951C83.1738 25.6164 82.2992 24.742 81.2207 24.742H73.7338V19.9123H85.8977C87.0633 19.9123 88.0115 20.8605 88.0115 22.0262V53.0109C88.6541 52.948 89.3057 52.9158 89.9646 52.9158C90.6236 52.9158 91.2752 52.948 91.9178 53.0109V22.0262C91.9178 18.7066 89.2172 16.0061 85.8977 16.0061H64.3912C64.1998 10.4561 59.6217 6 54.0215 6C48.4213 6 43.843 10.4561 43.6516 16.0061H22.1453C18.8256 16.0061 16.125 18.7066 16.125 22.0262V99.9799C16.125 103.299 18.8256 106 22.1453 106H85.8979C89.2174 106 91.918 103.299 91.918 99.9799V88.8916C91.2754 88.9543 90.6238 88.9865 89.9648 88.9865ZM38.2154 19.9123H45.7488C46.3312 19.9123 46.8832 19.6523 47.2543 19.2035C47.6254 18.7547 47.7768 18.1637 47.6672 17.5918C47.5906 17.1916 47.5518 16.7799 47.5518 16.368C47.5518 12.8049 50.4541 9.90625 54.0215 9.90625C57.5889 9.90625 60.4912 12.8049 60.4912 16.368C60.4912 16.7803 60.4523 17.1918 60.3758 17.5914C60.266 18.1635 60.4174 18.7545 60.7885 19.2035C61.1596 19.6523 61.7115 19.9123 62.2939 19.9123H69.8275V24.742H38.2154V19.9123Z" fill="#414896"/>
<path d="M89.9647 90.9398C100.961 90.9398 109.875 81.9907 109.875 70.9514C109.875 59.912 100.961 50.9629 89.9647 50.9629C78.9687 50.9629 70.0546 59.912 70.0546 70.9514C70.0546 81.9907 78.9687 90.9398 89.9647 90.9398Z" fill="#F2C786"/>
<path d="M93.6078 73.8187H89.9648C88.8863 73.8187 88.0117 72.9443 88.0117 71.8656V65.7703C88.0117 64.6916 88.8863 63.8171 89.9648 63.8171C91.0433 63.8171 91.9179 64.6916 91.9179 65.7703V69.9124H93.6078C94.6863 69.9124 95.5609 70.7869 95.5609 71.8656C95.5609 72.9443 94.6863 73.8187 93.6078 73.8187Z" fill="#414896"/>
<path d="M45.2463 44.4151C45.8861 41.7082 44.2105 38.9951 41.5036 38.3552C38.7966 37.7154 36.0835 39.3911 35.4437 42.098C34.8038 44.8049 36.4795 47.518 39.1864 48.1578C41.8933 48.7977 44.6064 47.122 45.2463 44.4151Z" fill="#F2C786"/>
<path d="M43.8983 83.9007C45.8652 81.9338 45.8652 78.7449 43.8983 76.778C41.9314 74.8111 38.7424 74.8111 36.7755 76.778C34.8087 78.7449 34.8087 81.9338 36.7756 83.9007C38.7424 85.8676 41.9314 85.8676 43.8983 83.9007Z" fill="#F2C786"/>
<path d="M45.2421 62.9715C45.882 60.2646 44.2063 57.5515 41.4994 56.9116C38.7925 56.2718 36.0794 57.9475 35.4395 60.6544C34.7997 63.3613 36.4753 66.0744 39.1823 66.7142C41.8892 67.3541 44.6023 65.6784 45.2421 62.9715Z" fill="#F2C786"/>
</g>
<defs>
<filter id="filter0_d" x="0" y="0" width="166" height="166" filterUnits="userSpaceOnUse" color-interpolation-filters="sRGB">
<feFlood flood-opacity="0" result="BackgroundImageFix"/>
<feColorMatrix in="SourceAlpha" type="matrix" values="0 0 0 0 0 0 0 0 0 0 0 0 0 0 0 0 0 0 127 0"/>
<feMorphology radius="3" operator="dilate" in="SourceAlpha" result="effect1_dropShadow"/>
<feOffset dy="7"/>
<feGaussianBlur stdDeviation="10"/>
<feColorMatrix type="matrix" values="0 0 0 0 0.729531 0 0 0 0 0.744069 0 0 0 0 0.845833 0 0 0 0.23 0"/>
<feBlend mode="normal" in2="BackgroundImageFix" result="effect1_dropShadow"/>
<feBlend mode="normal" in="SourceGraphic" in2="effect1_dropShadow" result="shape"/>
</filter>
<clipPath id="clip0">
<rect width="100" height="100" fill="white" transform="translate(13 6)"/>
</clipPath>
</defs>
</svg>
