<svg width="166" height="166" viewBox="0 0 166 166" fill="none" xmlns="http://www.w3.org/2000/svg">
<g filter="url(#filter0_d)">
<circle cx="83" cy="76" r="60" fill="white"/>
</g>
<path d="M88.672 24.4358V87.5644H37.3276V24.4358H88.672Z" fill="#D2F286"/>
<path d="M110.85 47.137L100.205 36.4901V20.9079C100.205 16.6645 96.7526 13.2126 92.5092 13.2126H76.931L71.8632 8.14396C70.4809 6.76133 68.6428 6 66.6879 6C64.733 6 62.8951 6.76133 61.5127 8.14377L56.4449 13.2124H33.4908C29.2474 13.2124 25.7952 16.6645 25.7952 20.9077V43.8792C25.749 43.9177 25.704 43.9585 25.6607 44.0019L15.15 54.5142C12.2975 57.3674 12.2975 62.0096 15.15 64.8628L25.7952 75.5097V91.0919C25.7952 95.3353 29.2474 98.7872 33.4908 98.7872H49.0691L54.1369 103.856C55.5191 105.238 57.357 106 59.3121 106C61.267 106 63.1049 105.238 64.4873 103.856L69.5552 98.7872H92.5094C96.7528 98.7872 100.205 95.3351 100.205 91.0919V68.1161C100.26 68.0718 100.313 68.0243 100.365 67.9731L110.85 57.4858C113.703 54.6326 113.703 49.9902 110.85 47.137ZM64.2752 10.9057C64.9196 10.2612 65.7764 9.90628 66.6879 9.90628C67.5995 9.90628 68.4563 10.2612 69.1007 10.9057L71.4069 13.2124H61.9688L64.2752 10.9057ZM17.9124 62.1008C16.5825 60.7705 16.5825 58.6061 17.9124 57.276L25.7952 49.3919V69.9849L17.9124 62.1008ZM61.7248 101.094C61.0805 101.739 60.2234 102.094 59.3121 102.094C58.4008 102.094 57.5437 101.739 56.8994 101.094L54.5931 98.7874H64.0311L61.7248 101.094ZM96.2985 91.0921C96.2985 93.1814 94.5987 94.8812 92.5092 94.8812H33.4908C31.4013 94.8812 29.7015 93.1814 29.7015 91.0921V20.9079C29.7015 18.8187 31.4013 17.1188 33.4908 17.1188H92.5092C94.5987 17.1188 96.2985 18.8187 96.2985 20.9079V91.0921ZM108.087 54.7238L100.205 62.6081V42.0149L108.087 49.899C109.418 51.2291 109.418 53.3935 108.087 54.7238Z" fill="#414896"/>
<path d="M62.9999 74.9679C52.5409 74.9679 44.0318 66.4589 44.0318 55.9996C44.0318 45.5405 52.5409 37.0315 62.9999 37.0315C73.459 37.0315 81.9682 45.5405 81.9682 55.9996C81.9682 66.4589 73.459 74.9679 62.9999 74.9679ZM62.9999 40.9378C54.6948 40.9378 47.9381 47.6945 47.9381 55.9996C47.9381 64.3047 54.6948 71.0616 62.9999 71.0616C71.3051 71.0616 78.062 64.3049 78.062 55.9996C78.062 47.6945 71.3051 40.9378 62.9999 40.9378Z" fill="#414896"/>
<path d="M57.4648 56.6457C56.3861 56.6457 55.5117 55.7713 55.5117 54.6926V52.1494C55.5117 51.0707 56.3861 50.1963 57.4648 50.1963C58.5435 50.1963 59.4179 51.0707 59.4179 52.1494V54.6926C59.4179 55.7713 58.5433 56.6457 57.4648 56.6457Z" fill="#414896"/>
<path d="M68.5352 56.6457C67.4565 56.6457 66.5821 55.7713 66.5821 54.6926V52.1494C66.5821 51.0707 67.4565 50.1963 68.5352 50.1963C69.6139 50.1963 70.4883 51.0707 70.4883 52.1494V54.6926C70.4883 55.7713 69.6139 56.6457 68.5352 56.6457Z" fill="#414896"/>
<path d="M62.9999 64.8884C61.478 64.8884 59.9565 64.3093 58.7979 63.1507C58.0352 62.388 58.0352 61.1513 58.7979 60.3884C59.5606 59.6257 60.7973 59.6257 61.5602 60.3884C62.354 61.1824 63.6462 61.1824 64.4399 60.3884C65.2026 59.6259 66.4395 59.6257 67.202 60.3884C67.9647 61.1511 67.9647 62.3878 67.202 63.1505C66.0434 64.3089 64.5214 64.8884 62.9999 64.8884Z" fill="#414896"/>
<defs>
<filter id="filter0_d" x="0" y="0" width="166" height="166" filterUnits="userSpaceOnUse" color-interpolation-filters="sRGB">
<feFlood flood-opacity="0" result="BackgroundImageFix"/>
<feColorMatrix in="SourceAlpha" type="matrix" values="0 0 0 0 0 0 0 0 0 0 0 0 0 0 0 0 0 0 127 0"/>
<feMorphology radius="3" operator="dilate" in="SourceAlpha" result="effect1_dropShadow"/>
<feOffset dy="7"/>
<feGaussianBlur stdDeviation="10"/>
<feColorMatrix type="matrix" values="0 0 0 0 0.729531 0 0 0 0 0.744069 0 0 0 0 0.845833 0 0 0 0.23 0"/>
<feBlend mode="normal" in2="BackgroundImageFix" result="effect1_dropShadow"/>
<feBlend mode="normal" in="SourceGraphic" in2="effect1_dropShadow" result="shape"/>
</filter>
</defs>
</svg>
