<svg width="166" height="166" viewBox="0 0 166 166" fill="none" xmlns="http://www.w3.org/2000/svg">
<g filter="url(#filter0_d)">
<circle cx="83" cy="76" r="60" fill="white"/>
</g>
<path d="M43.8525 17.5664C26.8404 17.5664 13 31.4068 13 48.4191V78.3006C13 81.8311 14.1148 85.1879 16.2238 88.0078C18.0205 90.4104 20.49 92.2916 23.2658 93.3926V98.6256C23.2658 99.7041 24.1402 100.579 25.2189 100.579H62.4865C63.5652 100.579 64.4396 99.7041 64.4396 98.6256V93.3953C70.6264 90.966 74.7055 85.0402 74.7055 78.3006V48.4191C74.7053 31.4068 60.8648 17.5664 43.8525 17.5664ZM60.5334 96.6725H27.1721V88.9062C27.1721 86.3658 29.2389 84.299 31.7793 84.299H35.6752L42.3299 92.5855C42.6977 93.0434 43.2518 93.3115 43.8391 93.3156H43.8527C44.435 93.3156 44.9873 93.0559 45.3584 92.6066L52.223 84.299H55.9262C58.4666 84.299 60.5334 86.3658 60.5334 88.9062V96.6725ZM49.5996 74.3502H48.9568C47.8781 74.3502 47.0037 75.2248 47.0037 76.3033V82.3459C47.0037 82.8998 47.2344 83.3998 47.6049 83.7555L43.8742 88.2701L40.182 83.6725C40.5045 83.3242 40.7016 82.858 40.7016 82.3459V76.3033C40.7016 75.2248 39.8271 74.3502 38.7484 74.3502H38.1059C31.5311 74.3502 26.7592 69.1459 26.7592 61.9758V47.5277L38.7742 47.1547C39.2904 47.1387 39.7791 46.9189 40.1336 46.5434L42.6506 43.8777L42.9736 45.5689C43.1494 46.4896 43.9547 47.1557 44.892 47.1557H50.4025C50.9238 47.1557 51.4236 46.9473 51.7902 46.5768L55.0861 43.2484L56.1602 45.9291C56.457 46.6699 57.175 47.1557 57.9732 47.1557H60.9459V61.9758C60.9461 69.1461 56.1742 74.3502 49.5996 74.3502ZM70.799 78.3006C70.799 82.8773 68.3225 86.9594 64.4395 89.09V88.9064C64.4395 84.2121 60.6203 80.393 55.926 80.393H50.9098V78.2027C58.9453 77.5381 64.8521 70.785 64.8521 61.9758V45.2025C64.8521 44.124 63.9777 43.2494 62.899 43.2494H59.2947L57.6055 39.0332C57.3607 38.4225 56.8248 37.976 56.1799 37.8455C55.5352 37.7145 54.8676 37.9178 54.4047 38.3855L49.5879 43.2494H46.5074L45.7709 39.3934C45.6334 38.673 45.1037 38.0904 44.3996 37.8848C43.6957 37.6795 42.9355 37.8855 42.4322 38.4188L37.8467 43.2752L24.7451 43.682C23.6906 43.7148 22.8527 44.5791 22.8527 45.6342V61.9756C22.8527 70.7848 28.7596 77.5379 36.7951 78.2025V80.3928H31.7791C27.0848 80.3928 23.2656 84.2119 23.2656 88.9062V89.0902C19.3824 86.9604 16.9062 82.8793 16.9062 78.3006V48.4191C16.9062 33.5607 28.9943 21.4727 43.8527 21.4727C58.7109 21.4727 70.799 33.5609 70.799 48.4191V78.3006Z" fill="#414896"/>
<path d="M36.0555 53.1235C34.9768 53.1235 34.1024 53.9981 34.1024 55.0767V57.0728C34.1024 58.1513 34.9768 59.0259 36.0555 59.0259C37.1342 59.0259 38.0086 58.1513 38.0086 57.0728V55.0767C38.0086 53.9981 37.1342 53.1235 36.0555 53.1235Z" fill="#414896"/>
<path d="M51.6496 53.1235C50.5709 53.1235 49.6965 53.9981 49.6965 55.0767V57.0728C49.6965 58.1513 50.5709 59.0259 51.6496 59.0259C52.7283 59.0259 53.6028 58.1513 53.6028 57.0728V55.0767C53.6028 53.9981 52.7283 53.1235 51.6496 53.1235Z" fill="#414896"/>
<path d="M45.7362 64.1088C45.2331 64.6121 44.5641 64.8895 43.8524 64.8895C43.1407 64.8895 42.4719 64.6121 41.9686 64.1088C41.2061 63.3457 39.9694 63.3453 39.2065 64.1082C38.4436 64.8707 38.4434 66.1074 39.2061 66.8703C40.4471 68.1119 42.0973 68.7957 43.8526 68.7957C45.6079 68.7957 47.2581 68.1119 48.4991 66.8703C49.2616 66.1074 49.2614 64.8709 48.4985 64.1082C47.7354 63.3451 46.4989 63.3455 45.7362 64.1088Z" fill="#414896"/>
<path d="M108.627 11.4216H73.7918C71.3768 11.4216 69.4187 13.3785 69.4187 15.7925V43.7027C69.4187 46.1167 71.3766 48.0736 73.7918 48.0736H76.5871L77.8646 51.1703L82.7832 48.0736H108.627C111.042 48.0736 113 46.1167 113 43.7027V15.7925C113 13.3785 111.042 11.4216 108.627 11.4216Z" fill="#D2F286"/>
<defs>
<filter id="filter0_d" x="0" y="0" width="166" height="166" filterUnits="userSpaceOnUse" color-interpolation-filters="sRGB">
<feFlood flood-opacity="0" result="BackgroundImageFix"/>
<feColorMatrix in="SourceAlpha" type="matrix" values="0 0 0 0 0 0 0 0 0 0 0 0 0 0 0 0 0 0 127 0"/>
<feMorphology radius="3" operator="dilate" in="SourceAlpha" result="effect1_dropShadow"/>
<feOffset dy="7"/>
<feGaussianBlur stdDeviation="10"/>
<feColorMatrix type="matrix" values="0 0 0 0 0.729531 0 0 0 0 0.744069 0 0 0 0 0.845833 0 0 0 0.23 0"/>
<feBlend mode="normal" in2="BackgroundImageFix" result="effect1_dropShadow"/>
<feBlend mode="normal" in="SourceGraphic" in2="effect1_dropShadow" result="shape"/>
</filter>
</defs>
</svg>
