<svg width="166" height="166" viewBox="0 0 166 166" fill="none" xmlns="http://www.w3.org/2000/svg">
<g filter="url(#filter0_d)">
<circle cx="83" cy="76" r="60" fill="white"/>
</g>
<g clip-path="url(#clip0)">
<path d="M88.3457 59.7102C101.962 59.7102 113 48.6721 113 35.0559C113 21.4397 101.962 10.4016 88.3457 10.4016C74.7295 10.4016 63.6914 21.4397 63.6914 35.0559C63.6914 48.6721 74.7295 59.7102 88.3457 59.7102Z" fill="#F2C786"/>
<path d="M78.0332 64.4654C77.0273 63.4595 75.69 62.9056 74.2676 62.9056C72.8451 62.9056 71.5078 63.4595 70.502 64.4654L63.6061 71.3613L43.2369 50.9922L50.1328 44.0963C52.2092 42.0199 52.2092 38.6414 50.1328 36.565L39.3375 25.7697C33.9576 20.3898 25.2043 20.39 19.8244 25.7697L17.209 28.3851C14.4947 31.0992 13 34.708 13 38.5463C13 42.3845 14.4947 45.9931 17.2088 48.7074L65.8908 97.3892C68.6049 100.103 72.2137 101.598 76.052 101.598C79.8902 101.598 83.4988 100.103 86.2131 97.3894L88.8285 94.7738C94.2082 89.3941 94.2082 80.6406 88.8285 75.2607L78.0332 64.4654ZM86.0666 92.0117L83.451 94.6273C81.4746 96.6037 78.8471 97.692 76.0521 97.692C73.2572 97.692 70.6295 96.6035 68.6533 94.6271L19.9709 45.9451C17.9947 43.9689 16.9062 41.3412 16.9062 38.5463C16.9062 35.7513 17.9947 33.1236 19.9711 31.1474L22.5867 28.5318C24.515 26.6035 27.048 25.6392 29.5811 25.6392C32.1141 25.6392 34.6471 26.6035 36.5754 28.5318L47.3707 39.3271C47.6389 39.5953 47.7863 39.9515 47.7863 40.3306C47.7863 40.7097 47.6387 41.0662 47.3707 41.3342L39.0938 49.6111C38.3311 50.3738 38.3311 51.6105 39.0938 52.3732L62.2248 75.5043C62.9877 76.2674 64.2244 76.267 64.9869 75.5043L73.2639 67.2275C73.532 66.9593 73.8883 66.8119 74.2674 66.8119C74.6465 66.8119 75.0029 66.9593 75.2709 67.2275L86.0662 78.0228C89.9232 81.8797 89.9232 88.1549 86.0666 92.0117Z" fill="#414896"/>
<path d="M81.7504 22.3518C80.6717 22.3518 79.7973 23.2262 79.7973 24.3049C79.7973 25.3836 80.6717 26.2581 81.7504 26.2581C90.2383 26.2581 97.1436 33.1633 97.1436 41.6512C97.1436 42.7299 98.018 43.6043 99.0967 43.6043C100.175 43.6043 101.05 42.7299 101.05 41.6512C101.05 31.0096 92.3922 22.3518 81.7504 22.3518Z" fill="#414896"/>
<path d="M81.7504 35.4004C85.1971 35.4004 88.0014 38.2045 88.0014 41.6514C88.0014 42.7301 88.8758 43.6045 89.9545 43.6045C91.0332 43.6045 91.9076 42.7301 91.9076 41.6514C91.9076 36.0506 87.3512 31.4941 81.7504 31.4941C80.6717 31.4941 79.7973 32.3686 79.7973 33.4473C79.7973 34.526 80.6717 35.4004 81.7504 35.4004Z" fill="#414896"/>
<path d="M81.75 43.6047C80.6713 43.6047 79.7969 42.7303 79.7969 41.6516C79.7969 40.5729 80.6713 39.6985 81.75 39.6985C82.8287 39.6985 83.7031 40.5729 83.7031 41.6516C83.7031 42.7303 82.8287 43.6047 81.75 43.6047Z" fill="#414896"/>
</g>
<defs>
<filter id="filter0_d" x="0" y="0" width="166" height="166" filterUnits="userSpaceOnUse" color-interpolation-filters="sRGB">
<feFlood flood-opacity="0" result="BackgroundImageFix"/>
<feColorMatrix in="SourceAlpha" type="matrix" values="0 0 0 0 0 0 0 0 0 0 0 0 0 0 0 0 0 0 127 0"/>
<feMorphology radius="3" operator="dilate" in="SourceAlpha" result="effect1_dropShadow"/>
<feOffset dy="7"/>
<feGaussianBlur stdDeviation="10"/>
<feColorMatrix type="matrix" values="0 0 0 0 0.729531 0 0 0 0 0.744069 0 0 0 0 0.845833 0 0 0 0.23 0"/>
<feBlend mode="normal" in2="BackgroundImageFix" result="effect1_dropShadow"/>
<feBlend mode="normal" in="SourceGraphic" in2="effect1_dropShadow" result="shape"/>
</filter>
<clipPath id="clip0">
<rect width="100" height="100" fill="white" transform="translate(13 6)"/>
</clipPath>
</defs>
</svg>
