<svg width="166" height="166" viewBox="0 0 166 166" fill="none" xmlns="http://www.w3.org/2000/svg">
<g filter="url(#filter0_d)">
<circle cx="83" cy="76" r="60" fill="white"/>
</g>
<path d="M100.056 51.2651C99.5666 51.2651 99.0764 51.0821 98.6971 50.7146C98.0785 50.1149 97.2606 49.7847 96.3938 49.7847H79.9172C78.8387 49.7847 77.9641 48.9101 77.9641 47.8315C77.9641 46.753 78.8387 45.8784 79.9172 45.8784H96.3938C98.2811 45.8784 100.065 46.5997 101.416 47.9095C102.19 48.6604 102.21 49.8968 101.459 50.6714C101.076 51.0665 100.566 51.2651 100.056 51.2651Z" fill="#414896"/>
<path d="M25.9435 51.2651C25.4336 51.2651 24.924 51.0665 24.5408 50.6714C23.79 49.8968 23.8094 48.6604 24.584 47.9095C25.9351 46.5997 27.7187 45.8784 29.6058 45.8784H50.7285C51.807 45.8784 52.6816 46.753 52.6816 47.8315C52.6816 48.9101 51.807 49.7847 50.7285 49.7847H29.6057C28.7389 49.7847 27.9211 50.1147 27.3025 50.7146C26.9232 51.0819 26.433 51.2651 25.9435 51.2651Z" fill="#414896"/>
<path d="M82.0439 6H34.7326V57.9389L58.673 81.4402L60.0496 82.7137H65.9504L67.327 81.4402L91.2674 57.9389V15.2139L82.0439 6Z" fill="#D2F286"/>
<path d="M101.469 47.9626C101.463 47.9564 101.457 47.9499 101.451 47.9437C100.789 47.2695 99.7583 47.1769 98.9952 47.672C98.9893 47.6759 98.9835 47.6798 98.9774 47.6837C98.9704 47.6884 98.9632 47.6931 98.9561 47.6978C98.8581 47.7648 98.7647 47.8417 98.6776 47.9285L65.979 80.0261L65.1854 80.7605H60.8145L60.021 80.0261L27.3223 47.9285C27.2354 47.8419 27.1424 47.765 27.0444 47.6982C26.2778 47.1738 25.2227 47.2577 24.5495 47.9437C24.5434 47.9499 24.5374 47.9562 24.5315 47.9626C23.1512 49.3261 22.3921 51.1411 22.3921 53.0827V98.7947C22.3921 100.885 23.2991 102.868 24.8801 104.235C24.8852 104.24 24.8905 104.244 24.8956 104.249C26.2008 105.378 27.8723 106 29.6055 106H96.3946C98.1276 106 99.7991 105.378 101.105 104.248C101.11 104.244 101.115 104.24 101.12 104.235C102.701 102.868 103.608 100.885 103.608 98.7945V53.0826C103.608 51.1411 102.849 49.3259 101.469 47.9626ZM26.5315 100.012C26.379 99.6288 26.2979 99.2165 26.2979 98.7947V53.0826C26.2979 52.8695 26.318 52.6595 26.3571 52.455L53.6499 79.246L26.5315 100.012ZM30.2378 102.094L56.4659 82.0101L57.3051 82.8339C57.3186 82.8474 57.3327 82.8609 57.3467 82.8738L58.7231 84.1474C59.0843 84.4814 59.5579 84.6669 60.0497 84.6669H65.9507C66.4425 84.6669 66.9161 84.4814 67.2772 84.1474L68.6536 82.8738C68.6677 82.8609 68.6817 82.8474 68.6952 82.8339L69.5344 82.0101L95.7624 102.094H30.2378ZM99.702 98.7945C99.702 99.2163 99.6212 99.6286 99.4684 100.011L72.3499 79.2462L99.6428 52.4552C99.6821 52.6597 99.702 52.8697 99.702 53.0827V98.7945Z" fill="#414896"/>
<path d="M56.1753 32.4565H69.8255C70.904 32.4565 71.7786 31.5819 71.7786 30.5034C71.7786 29.4249 70.904 28.5503 69.8255 28.5503H56.1753C55.0967 28.5503 54.2221 29.4249 54.2221 30.5034C54.2221 31.5819 55.0966 32.4565 56.1753 32.4565Z" fill="#414896"/>
<path d="M50.0633 43.8538H75.9373C77.0159 43.8538 77.8905 42.9792 77.8905 41.9006C77.8905 40.8221 77.0159 39.9475 75.9373 39.9475H50.0633C48.9848 39.9475 48.1102 40.8221 48.1102 41.9006C48.1102 42.9792 48.9846 43.8538 50.0633 43.8538Z" fill="#414896"/>
<path d="M50.0633 52.8086H75.9373C77.0159 52.8086 77.8905 51.934 77.8905 50.8555C77.8905 49.777 77.0159 48.9023 75.9373 48.9023H50.0633C48.9848 48.9023 48.1102 49.777 48.1102 50.8555C48.1102 51.934 48.9846 52.8086 50.0633 52.8086Z" fill="#414896"/>
<defs>
<filter id="filter0_d" x="0" y="0" width="166" height="166" filterUnits="userSpaceOnUse" color-interpolation-filters="sRGB">
<feFlood flood-opacity="0" result="BackgroundImageFix"/>
<feColorMatrix in="SourceAlpha" type="matrix" values="0 0 0 0 0 0 0 0 0 0 0 0 0 0 0 0 0 0 127 0"/>
<feMorphology radius="3" operator="dilate" in="SourceAlpha" result="effect1_dropShadow"/>
<feOffset dy="7"/>
<feGaussianBlur stdDeviation="10"/>
<feColorMatrix type="matrix" values="0 0 0 0 0.729531 0 0 0 0 0.744069 0 0 0 0 0.845833 0 0 0 0.23 0"/>
<feBlend mode="normal" in2="BackgroundImageFix" result="effect1_dropShadow"/>
<feBlend mode="normal" in="SourceGraphic" in2="effect1_dropShadow" result="shape"/>
</filter>
</defs>
</svg>
