<svg width="166" height="166" viewBox="0 0 166 166" fill="none" xmlns="http://www.w3.org/2000/svg">
<g filter="url(#filter0_d)">
<circle cx="83" cy="76" r="60" fill="white"/>
</g>
<g clip-path="url(#clip0)">
<path d="M111.047 71.0252H110.76V58.1122C110.763 57.8332 110.693 57.5385 110.597 57.3293L102.713 38.3733C102.41 37.645 101.698 37.1702 100.91 37.1702H87.8287V26.05C87.8287 22.578 85.0086 19.7532 81.5422 19.7532H73.7512L73.8563 23.6594H81.5422C82.8547 23.6594 83.9225 24.7319 83.9225 26.05V71.0248H19.1461V26.0502C19.1461 24.7321 20.2139 23.6596 21.5264 23.6596H28.0457L28.1508 19.7534H21.5264C18.06 19.7534 15.2398 22.5782 15.2398 26.0502V71.0251H14.9531C13.8744 71.0251 13 71.8995 13 72.9782V86.3829C13 87.4616 13.8744 88.336 14.9531 88.336H25.3191C25.1242 89.1621 25.0209 90.0239 25.0209 90.9092C25.0209 97.0446 29.9773 102.036 36.0699 102.036C42.1623 102.036 47.1188 97.0446 47.1188 90.9092C47.1188 90.0239 47.0154 89.1621 46.8205 88.336H81.5594C81.3644 89.1621 81.2611 90.0239 81.2611 90.9092C81.2611 97.0446 86.2176 102.036 92.3102 102.036C98.4025 102.036 103.359 97.0446 103.359 90.9092C103.359 90.0239 103.256 89.1621 103.061 88.336H111.047C112.126 88.336 113 87.4616 113 86.3829V72.9782C113 71.8997 112.126 71.0252 111.047 71.0252ZM87.8291 41.0766H99.6066L105.879 56.159H87.8291V41.0766ZM87.8291 60.0653H106.854V71.0241H87.8291V60.0653ZM36.0699 98.1297C32.1314 98.1297 28.9271 94.8907 28.9271 90.9092C28.9271 86.9278 32.1314 83.6887 36.0699 83.6887C40.0084 83.6887 43.2125 86.9278 43.2125 90.9092C43.2127 94.8907 40.0084 98.1297 36.0699 98.1297ZM92.3102 98.1297C88.3717 98.1297 85.1674 94.8907 85.1674 90.9092C85.1674 86.9278 88.3717 83.6887 92.3102 83.6887C96.2486 83.6887 99.4529 86.9278 99.4529 90.9092C99.4529 94.8907 96.2486 98.1297 92.3102 98.1297ZM109.094 84.4297H101.429C101.383 84.4297 101.337 84.4315 101.291 84.4346C99.2844 81.6196 96.0062 79.7825 92.3102 79.7825C88.6162 79.7825 85.3398 81.6174 83.3326 84.4297H45.19C45.1432 84.4297 45.0969 84.4315 45.0508 84.4348C43.0439 81.6198 39.7658 79.7827 36.0699 79.7827C32.376 79.7827 29.0996 81.6176 27.0924 84.4299H16.9062V74.9315H109.094V84.4297Z" fill="#414896"/>
<path d="M75.6081 16.1792C75.7683 14.3687 75.649 12.8237 74.512 11.6325C70.3935 7.31828 60.6609 12.2972 55.848 16.1087C55.1107 15.5872 54.2525 15.1202 53.3224 14.922C52.5732 14.689 51.7767 14.5634 50.9507 14.5634C50.1521 14.5634 49.3808 14.681 48.6532 14.8995C47.6947 15.073 46.8103 15.5169 46.0536 16.0519C41.2409 12.2405 31.5085 7.41086 27.39 11.7253C26.2529 12.9165 26.1335 14.3685 26.2939 16.1792L25.9532 28.8534C26.2572 38.307 37.1189 35.2505 44.0251 31.3302V43.538L50.9511 39.6609L57.8771 43.538V31.33C64.7833 35.2503 75.645 38.3068 75.9489 28.8532L75.6081 16.1792Z" fill="#D2F286"/>
</g>
<defs>
<filter id="filter0_d" x="0" y="0" width="166" height="166" filterUnits="userSpaceOnUse" color-interpolation-filters="sRGB">
<feFlood flood-opacity="0" result="BackgroundImageFix"/>
<feColorMatrix in="SourceAlpha" type="matrix" values="0 0 0 0 0 0 0 0 0 0 0 0 0 0 0 0 0 0 127 0"/>
<feMorphology radius="3" operator="dilate" in="SourceAlpha" result="effect1_dropShadow"/>
<feOffset dy="7"/>
<feGaussianBlur stdDeviation="10"/>
<feColorMatrix type="matrix" values="0 0 0 0 0.729531 0 0 0 0 0.744069 0 0 0 0 0.845833 0 0 0 0.23 0"/>
<feBlend mode="normal" in2="BackgroundImageFix" result="effect1_dropShadow"/>
<feBlend mode="normal" in="SourceGraphic" in2="effect1_dropShadow" result="shape"/>
</filter>
<clipPath id="clip0">
<rect width="100" height="100" fill="white" transform="translate(13 6)"/>
</clipPath>
</defs>
</svg>
