<svg width="166" height="166" viewBox="0 0 166 166" fill="none" xmlns="http://www.w3.org/2000/svg">
<g filter="url(#filter0_d)">
<circle cx="83" cy="76" r="60" fill="white"/>
</g>
<g clip-path="url(#clip0)">
<path d="M111.047 66.96C109.968 66.96 109.094 67.8344 109.094 68.9131V79.2814C109.094 80.7971 107.861 82.0303 106.345 82.0303H19.6549C18.1393 82.0303 16.9062 80.7973 16.9062 79.2814V74.1945C17.7447 74.5766 18.675 74.7912 19.6549 74.7912H84.2853C85.3641 74.7912 86.2385 73.9168 86.2385 72.8381C86.2385 71.7594 85.3641 70.885 84.2853 70.885H19.6549C18.1393 70.885 16.9062 69.652 16.9062 68.1361V61.5041V32.7186C16.9062 31.2029 18.1393 29.9697 19.6549 29.9697H84.2853C85.3641 29.9697 86.2385 29.0953 86.2385 28.0166C86.2385 26.9379 85.3641 26.0635 84.2853 26.0635H19.6549C15.9854 26.0635 13 29.0488 13 32.7186V61.5041V68.1361V79.2814C13 82.951 15.9854 85.9365 19.6549 85.9365H106.345C110.015 85.9365 113 82.951 113 79.2814V68.9131C113 67.8344 112.126 66.96 111.047 66.96Z" fill="#414896"/>
<path d="M35.5018 41.9457C35.1454 41.0789 34.3098 40.5193 33.3729 40.5193C33.3721 40.5193 33.3716 40.5193 33.3708 40.5193C32.4329 40.5201 31.5973 41.0814 31.2423 41.9496C31.2362 41.9644 31.2303 41.9791 31.2247 41.9941L25.4446 57.1703C25.0606 58.1783 25.5667 59.3066 26.5747 59.6906C27.5827 60.0745 28.7112 59.5685 29.095 58.5605L30.0553 56.0388H36.646L37.5956 58.555C37.8907 59.3372 38.6339 59.8191 39.4231 59.8191C39.6522 59.8191 39.8854 59.7785 40.1124 59.6927C41.1216 59.3119 41.6309 58.1849 41.2501 57.1757L35.5225 41.9988C35.5161 41.9812 35.5091 41.9634 35.5018 41.9457ZM31.5432 52.1326L33.3659 47.347L35.1719 52.1326H31.5432Z" fill="#414896"/>
<path d="M44.8342 40.7468C44.3157 40.7468 43.8182 40.9531 43.4518 41.3203C43.0854 41.6875 42.8801 42.1851 42.8811 42.7037C42.8811 42.7039 42.892 48.4492 42.892 50.1523C42.892 52.2068 42.9114 57.5904 42.9116 57.6447C42.9135 58.1626 43.1211 58.6587 43.4887 59.0238C43.8547 59.3871 44.3493 59.5908 44.8647 59.5908H44.8721C44.9999 59.5904 48.017 59.5787 49.2229 59.5576C53.7585 59.4783 57.0504 55.5296 57.0504 50.1687C57.0504 44.5332 53.8413 40.7468 49.0651 40.7468H44.8342ZM53.1442 50.1687C53.1442 52.8632 51.9106 55.6037 49.1547 55.6519C48.6147 55.6613 47.6747 55.6689 46.8112 55.6744C46.8055 53.9103 46.7983 51.4066 46.7983 50.1523C46.7983 49.0959 46.7942 46.4857 46.7909 44.6531H49.0649C52.8501 44.6531 53.1442 48.8748 53.1442 50.1687Z" fill="#414896"/>
<path d="M61.016 40.7468C60.4974 40.7468 60 40.9531 59.6336 41.3203C59.2672 41.6875 59.0619 42.1851 59.0629 42.7037C59.0629 42.7039 59.0738 48.4492 59.0738 50.1523C59.0738 52.2068 59.0931 57.5904 59.0933 57.6447C59.0953 58.1626 59.3029 58.6587 59.6705 59.0238C60.0365 59.3871 60.531 59.5908 61.0465 59.5908H61.0539C61.1816 59.5904 64.1988 59.5787 65.4047 59.5576C69.9402 59.4783 73.2322 55.5296 73.2322 50.1687C73.2322 44.5332 70.023 40.7468 65.2469 40.7468H61.016ZM69.326 50.1687C69.326 52.8632 68.0924 55.6037 65.3365 55.6519C64.7965 55.6613 63.8564 55.6689 62.9929 55.6744C62.9873 53.9103 62.9801 51.4066 62.9801 50.1523C62.9801 49.0959 62.976 46.4857 62.9726 44.6531H65.2467C69.0318 44.6531 69.326 48.8748 69.326 50.1687Z" fill="#414896"/>
<path d="M108.298 74.7911H83.6995V26.0793H108.298C110.895 26.0793 113 28.1844 113 30.7811V70.0893C113 72.686 110.895 74.7911 108.298 74.7911Z" fill="#F2C786"/>
<path d="M103.8 48.7977H100.87V45.8672C100.87 44.7885 99.9952 43.9141 98.9165 43.9141C97.8378 43.9141 96.9634 44.7885 96.9634 45.8672V48.7977H94.0331C92.9544 48.7977 92.08 49.6721 92.08 50.7508C92.08 51.8295 92.9544 52.7039 94.0331 52.7039H96.9635V55.6344C96.9635 56.7131 97.838 57.5875 98.9167 57.5875C99.9954 57.5875 100.87 56.7131 100.87 55.6344V52.7039H103.8C104.879 52.7039 105.753 51.8295 105.753 50.7508C105.753 49.6721 104.879 48.7977 103.8 48.7977Z" fill="#414896"/>
</g>
<defs>
<filter id="filter0_d" x="0" y="0" width="166" height="166" filterUnits="userSpaceOnUse" color-interpolation-filters="sRGB">
<feFlood flood-opacity="0" result="BackgroundImageFix"/>
<feColorMatrix in="SourceAlpha" type="matrix" values="0 0 0 0 0 0 0 0 0 0 0 0 0 0 0 0 0 0 127 0"/>
<feMorphology radius="3" operator="dilate" in="SourceAlpha" result="effect1_dropShadow"/>
<feOffset dy="7"/>
<feGaussianBlur stdDeviation="10"/>
<feColorMatrix type="matrix" values="0 0 0 0 0.729531 0 0 0 0 0.744069 0 0 0 0 0.845833 0 0 0 0.23 0"/>
<feBlend mode="normal" in2="BackgroundImageFix" result="effect1_dropShadow"/>
<feBlend mode="normal" in="SourceGraphic" in2="effect1_dropShadow" result="shape"/>
</filter>
<clipPath id="clip0">
<rect width="100" height="100" fill="white" transform="translate(13 6)"/>
</clipPath>
</defs>
</svg>
